G04 EAGLE Gerber RS-274X export*
G75*
%MOMM*%
%FSLAX34Y34*%
%LPD*%
%INTop Layer*%
%IPPOS*%
%AMOC8*
5,1,8,0,0,1.08239X$1,22.5*%
G01*
%ADD10C,0.000000*%
%ADD11R,0.850000X0.350000*%
%ADD12R,0.350000X0.850000*%
%ADD13R,3.300000X3.300000*%
%ADD14R,0.600000X1.000000*%
%ADD15R,0.700000X1.800000*%
%ADD16C,2.250000*%
%ADD17C,0.609600*%
%ADD18C,4.016000*%
%ADD19C,0.508000*%
%ADD20C,0.254000*%
%ADD21C,0.304800*%
%ADD22C,0.203200*%
%ADD23C,0.152400*%
%ADD24C,0.654800*%

G36*
X81984Y5592D02*
X81984Y5592D01*
X82003Y5590D01*
X82105Y5612D01*
X82207Y5629D01*
X82224Y5638D01*
X82244Y5642D01*
X82333Y5695D01*
X82424Y5744D01*
X82438Y5758D01*
X82455Y5768D01*
X82522Y5847D01*
X82594Y5922D01*
X82602Y5940D01*
X82615Y5955D01*
X82654Y6051D01*
X82697Y6145D01*
X82699Y6165D01*
X82707Y6183D01*
X82725Y6350D01*
X82725Y24807D01*
X83618Y25700D01*
X91882Y25700D01*
X92775Y24807D01*
X92775Y6350D01*
X92778Y6330D01*
X92776Y6311D01*
X92798Y6209D01*
X92814Y6107D01*
X92824Y6090D01*
X92828Y6070D01*
X92881Y5981D01*
X92930Y5890D01*
X92944Y5876D01*
X92954Y5859D01*
X93033Y5792D01*
X93108Y5721D01*
X93126Y5712D01*
X93141Y5699D01*
X93237Y5660D01*
X93331Y5617D01*
X93351Y5615D01*
X93369Y5607D01*
X93536Y5589D01*
X160464Y5589D01*
X160484Y5592D01*
X160503Y5590D01*
X160605Y5612D01*
X160707Y5629D01*
X160724Y5638D01*
X160744Y5642D01*
X160833Y5695D01*
X160924Y5744D01*
X160938Y5758D01*
X160955Y5768D01*
X161022Y5847D01*
X161094Y5922D01*
X161102Y5940D01*
X161115Y5955D01*
X161154Y6051D01*
X161197Y6145D01*
X161199Y6165D01*
X161207Y6183D01*
X161225Y6350D01*
X161225Y24807D01*
X162118Y25700D01*
X170382Y25700D01*
X171275Y24807D01*
X171275Y6350D01*
X171278Y6330D01*
X171276Y6311D01*
X171298Y6209D01*
X171314Y6107D01*
X171324Y6090D01*
X171328Y6070D01*
X171381Y5981D01*
X171430Y5890D01*
X171444Y5876D01*
X171454Y5859D01*
X171533Y5792D01*
X171608Y5721D01*
X171626Y5712D01*
X171641Y5699D01*
X171737Y5660D01*
X171831Y5617D01*
X171851Y5615D01*
X171869Y5607D01*
X172036Y5589D01*
X247650Y5589D01*
X247670Y5592D01*
X247689Y5590D01*
X247791Y5612D01*
X247893Y5629D01*
X247910Y5638D01*
X247930Y5642D01*
X248019Y5695D01*
X248110Y5744D01*
X248124Y5758D01*
X248141Y5768D01*
X248208Y5847D01*
X248280Y5922D01*
X248288Y5940D01*
X248301Y5955D01*
X248340Y6051D01*
X248383Y6145D01*
X248385Y6165D01*
X248393Y6183D01*
X248411Y6350D01*
X248411Y298450D01*
X248408Y298470D01*
X248410Y298489D01*
X248388Y298591D01*
X248372Y298693D01*
X248362Y298710D01*
X248358Y298730D01*
X248305Y298819D01*
X248256Y298910D01*
X248242Y298924D01*
X248232Y298941D01*
X248153Y299008D01*
X248078Y299080D01*
X248060Y299088D01*
X248045Y299101D01*
X247949Y299140D01*
X247855Y299183D01*
X247835Y299185D01*
X247817Y299193D01*
X247650Y299211D01*
X6350Y299211D01*
X6330Y299208D01*
X6311Y299210D01*
X6209Y299188D01*
X6107Y299172D01*
X6090Y299162D01*
X6070Y299158D01*
X5981Y299105D01*
X5890Y299056D01*
X5876Y299042D01*
X5859Y299032D01*
X5792Y298953D01*
X5721Y298878D01*
X5712Y298860D01*
X5699Y298845D01*
X5660Y298749D01*
X5617Y298655D01*
X5615Y298635D01*
X5607Y298617D01*
X5589Y298450D01*
X5589Y6350D01*
X5592Y6330D01*
X5590Y6311D01*
X5612Y6209D01*
X5629Y6107D01*
X5638Y6090D01*
X5642Y6070D01*
X5695Y5981D01*
X5744Y5890D01*
X5758Y5876D01*
X5768Y5859D01*
X5847Y5792D01*
X5922Y5721D01*
X5940Y5712D01*
X5955Y5699D01*
X6051Y5660D01*
X6145Y5617D01*
X6165Y5615D01*
X6183Y5607D01*
X6350Y5589D01*
X81964Y5589D01*
X81984Y5592D01*
G37*
%LPC*%
G36*
X75148Y45084D02*
X75148Y45084D01*
X16509Y103723D01*
X16509Y169327D01*
X30698Y183516D01*
X70902Y183516D01*
X88459Y165959D01*
X88533Y165906D01*
X88603Y165846D01*
X88633Y165834D01*
X88659Y165815D01*
X88746Y165788D01*
X88831Y165754D01*
X88872Y165750D01*
X88894Y165743D01*
X88926Y165744D01*
X88998Y165736D01*
X107852Y165736D01*
X107942Y165750D01*
X108033Y165758D01*
X108063Y165770D01*
X108095Y165775D01*
X108176Y165818D01*
X108260Y165854D01*
X108292Y165880D01*
X108312Y165891D01*
X108335Y165914D01*
X108391Y165959D01*
X114486Y172054D01*
X114539Y172128D01*
X114599Y172198D01*
X114611Y172228D01*
X114630Y172254D01*
X114657Y172341D01*
X114691Y172426D01*
X114695Y172467D01*
X114702Y172489D01*
X114701Y172521D01*
X114709Y172593D01*
X114709Y172665D01*
X114698Y172736D01*
X114696Y172808D01*
X114678Y172857D01*
X114670Y172908D01*
X114636Y172971D01*
X114611Y173039D01*
X114579Y173079D01*
X114554Y173125D01*
X114502Y173175D01*
X114458Y173231D01*
X114414Y173259D01*
X114376Y173295D01*
X114311Y173325D01*
X114251Y173364D01*
X114200Y173376D01*
X114153Y173398D01*
X114082Y173406D01*
X114012Y173424D01*
X113960Y173420D01*
X113909Y173425D01*
X113838Y173410D01*
X113767Y173405D01*
X113719Y173384D01*
X113668Y173373D01*
X113607Y173336D01*
X113541Y173308D01*
X113485Y173263D01*
X113457Y173247D01*
X113442Y173229D01*
X113410Y173203D01*
X113132Y172925D01*
X108368Y172925D01*
X107475Y173818D01*
X107475Y182914D01*
X107472Y182934D01*
X107474Y182953D01*
X107452Y183055D01*
X107436Y183157D01*
X107426Y183174D01*
X107422Y183194D01*
X107369Y183283D01*
X107320Y183374D01*
X107306Y183388D01*
X107296Y183405D01*
X107217Y183472D01*
X107142Y183544D01*
X107124Y183552D01*
X107109Y183565D01*
X107013Y183604D01*
X106919Y183647D01*
X106899Y183649D01*
X106881Y183657D01*
X106714Y183675D01*
X97618Y183675D01*
X96725Y184568D01*
X96725Y189332D01*
X97055Y189662D01*
X97067Y189678D01*
X97083Y189690D01*
X97139Y189777D01*
X97199Y189861D01*
X97205Y189880D01*
X97216Y189897D01*
X97241Y189998D01*
X97271Y190097D01*
X97271Y190116D01*
X97276Y190136D01*
X97268Y190239D01*
X97265Y190342D01*
X97258Y190361D01*
X97257Y190381D01*
X97216Y190476D01*
X97181Y190573D01*
X97168Y190589D01*
X97160Y190607D01*
X97055Y190738D01*
X96725Y191068D01*
X96725Y195832D01*
X97055Y196162D01*
X97067Y196178D01*
X97083Y196190D01*
X97139Y196277D01*
X97199Y196361D01*
X97205Y196380D01*
X97216Y196397D01*
X97241Y196497D01*
X97271Y196597D01*
X97271Y196616D01*
X97276Y196636D01*
X97268Y196739D01*
X97265Y196842D01*
X97258Y196861D01*
X97257Y196881D01*
X97216Y196976D01*
X97181Y197073D01*
X97168Y197089D01*
X97160Y197107D01*
X97055Y197238D01*
X96725Y197568D01*
X96725Y202332D01*
X97055Y202662D01*
X97067Y202678D01*
X97083Y202690D01*
X97139Y202777D01*
X97199Y202861D01*
X97205Y202880D01*
X97216Y202897D01*
X97241Y202998D01*
X97271Y203097D01*
X97271Y203116D01*
X97276Y203136D01*
X97268Y203239D01*
X97265Y203342D01*
X97258Y203361D01*
X97257Y203381D01*
X97216Y203476D01*
X97181Y203573D01*
X97168Y203589D01*
X97160Y203607D01*
X97055Y203738D01*
X96725Y204068D01*
X96725Y208832D01*
X97055Y209162D01*
X97067Y209178D01*
X97083Y209190D01*
X97139Y209277D01*
X97199Y209361D01*
X97205Y209380D01*
X97216Y209397D01*
X97241Y209498D01*
X97271Y209597D01*
X97271Y209616D01*
X97276Y209636D01*
X97268Y209739D01*
X97265Y209842D01*
X97258Y209861D01*
X97257Y209881D01*
X97216Y209976D01*
X97181Y210073D01*
X97168Y210089D01*
X97160Y210107D01*
X97055Y210238D01*
X96725Y210568D01*
X96725Y215332D01*
X97055Y215662D01*
X97067Y215678D01*
X97083Y215690D01*
X97139Y215777D01*
X97199Y215861D01*
X97205Y215880D01*
X97216Y215897D01*
X97241Y215998D01*
X97271Y216097D01*
X97271Y216116D01*
X97276Y216136D01*
X97268Y216239D01*
X97265Y216342D01*
X97258Y216361D01*
X97257Y216381D01*
X97216Y216476D01*
X97181Y216573D01*
X97168Y216589D01*
X97160Y216607D01*
X97055Y216738D01*
X96725Y217068D01*
X96725Y221832D01*
X97618Y222725D01*
X106714Y222725D01*
X106734Y222728D01*
X106753Y222726D01*
X106855Y222748D01*
X106957Y222764D01*
X106974Y222774D01*
X106994Y222778D01*
X107083Y222831D01*
X107174Y222880D01*
X107188Y222894D01*
X107205Y222904D01*
X107272Y222983D01*
X107344Y223058D01*
X107352Y223076D01*
X107365Y223091D01*
X107404Y223187D01*
X107447Y223281D01*
X107449Y223301D01*
X107457Y223319D01*
X107475Y223486D01*
X107475Y232582D01*
X108368Y233475D01*
X113132Y233475D01*
X113462Y233145D01*
X113478Y233133D01*
X113490Y233117D01*
X113577Y233061D01*
X113661Y233001D01*
X113680Y232995D01*
X113697Y232984D01*
X113798Y232959D01*
X113897Y232929D01*
X113916Y232929D01*
X113936Y232924D01*
X114039Y232932D01*
X114142Y232935D01*
X114161Y232942D01*
X114181Y232943D01*
X114276Y232984D01*
X114373Y233019D01*
X114389Y233032D01*
X114407Y233040D01*
X114538Y233145D01*
X114868Y233475D01*
X119632Y233475D01*
X119962Y233145D01*
X119978Y233133D01*
X119990Y233117D01*
X120077Y233061D01*
X120161Y233001D01*
X120180Y232995D01*
X120197Y232984D01*
X120298Y232959D01*
X120397Y232929D01*
X120416Y232929D01*
X120436Y232924D01*
X120539Y232932D01*
X120642Y232935D01*
X120661Y232942D01*
X120681Y232943D01*
X120776Y232984D01*
X120873Y233019D01*
X120889Y233032D01*
X120907Y233040D01*
X121038Y233145D01*
X121368Y233475D01*
X126132Y233475D01*
X127025Y232582D01*
X127025Y222818D01*
X126132Y221925D01*
X121368Y221925D01*
X121038Y222255D01*
X121022Y222267D01*
X121010Y222283D01*
X120923Y222339D01*
X120839Y222399D01*
X120820Y222405D01*
X120803Y222416D01*
X120702Y222441D01*
X120603Y222471D01*
X120584Y222471D01*
X120564Y222476D01*
X120461Y222468D01*
X120358Y222465D01*
X120339Y222458D01*
X120319Y222457D01*
X120224Y222416D01*
X120127Y222381D01*
X120111Y222368D01*
X120093Y222360D01*
X119962Y222255D01*
X119632Y221925D01*
X114868Y221925D01*
X114538Y222255D01*
X114522Y222267D01*
X114510Y222283D01*
X114423Y222339D01*
X114339Y222399D01*
X114320Y222405D01*
X114303Y222416D01*
X114202Y222441D01*
X114103Y222471D01*
X114084Y222471D01*
X114064Y222476D01*
X113961Y222468D01*
X113858Y222465D01*
X113839Y222458D01*
X113819Y222457D01*
X113724Y222416D01*
X113627Y222381D01*
X113611Y222368D01*
X113593Y222360D01*
X113462Y222255D01*
X113132Y221925D01*
X109036Y221925D01*
X109016Y221922D01*
X108997Y221924D01*
X108895Y221902D01*
X108793Y221886D01*
X108776Y221876D01*
X108756Y221872D01*
X108667Y221819D01*
X108576Y221770D01*
X108562Y221756D01*
X108545Y221746D01*
X108478Y221667D01*
X108406Y221592D01*
X108398Y221574D01*
X108385Y221559D01*
X108346Y221463D01*
X108303Y221369D01*
X108301Y221349D01*
X108293Y221331D01*
X108275Y221164D01*
X108275Y217068D01*
X107945Y216738D01*
X107933Y216722D01*
X107917Y216710D01*
X107861Y216623D01*
X107801Y216539D01*
X107795Y216520D01*
X107784Y216503D01*
X107759Y216402D01*
X107729Y216303D01*
X107729Y216284D01*
X107724Y216264D01*
X107732Y216161D01*
X107735Y216058D01*
X107742Y216039D01*
X107743Y216019D01*
X107784Y215924D01*
X107819Y215827D01*
X107832Y215811D01*
X107840Y215793D01*
X107945Y215662D01*
X108275Y215332D01*
X108275Y210568D01*
X107945Y210238D01*
X107933Y210222D01*
X107917Y210210D01*
X107861Y210123D01*
X107801Y210039D01*
X107795Y210020D01*
X107784Y210003D01*
X107759Y209902D01*
X107729Y209803D01*
X107729Y209784D01*
X107724Y209764D01*
X107732Y209661D01*
X107735Y209558D01*
X107742Y209539D01*
X107743Y209519D01*
X107784Y209424D01*
X107819Y209327D01*
X107832Y209311D01*
X107840Y209293D01*
X107945Y209162D01*
X108275Y208832D01*
X108275Y204068D01*
X107945Y203738D01*
X107933Y203722D01*
X107917Y203710D01*
X107861Y203623D01*
X107801Y203539D01*
X107795Y203520D01*
X107784Y203503D01*
X107759Y203402D01*
X107729Y203303D01*
X107729Y203284D01*
X107724Y203264D01*
X107732Y203161D01*
X107735Y203058D01*
X107742Y203039D01*
X107743Y203019D01*
X107784Y202924D01*
X107819Y202827D01*
X107832Y202811D01*
X107840Y202793D01*
X107945Y202662D01*
X108275Y202332D01*
X108275Y197568D01*
X107945Y197238D01*
X107933Y197222D01*
X107917Y197210D01*
X107861Y197123D01*
X107801Y197039D01*
X107795Y197020D01*
X107784Y197003D01*
X107759Y196902D01*
X107729Y196803D01*
X107729Y196784D01*
X107724Y196764D01*
X107732Y196661D01*
X107735Y196558D01*
X107742Y196539D01*
X107743Y196519D01*
X107784Y196424D01*
X107819Y196327D01*
X107832Y196311D01*
X107840Y196293D01*
X107945Y196162D01*
X108275Y195832D01*
X108275Y191068D01*
X107945Y190738D01*
X107933Y190722D01*
X107917Y190710D01*
X107861Y190623D01*
X107801Y190539D01*
X107795Y190520D01*
X107784Y190503D01*
X107759Y190402D01*
X107729Y190303D01*
X107729Y190284D01*
X107724Y190264D01*
X107732Y190161D01*
X107735Y190058D01*
X107742Y190039D01*
X107743Y190019D01*
X107784Y189924D01*
X107819Y189827D01*
X107832Y189811D01*
X107840Y189793D01*
X107945Y189662D01*
X108275Y189332D01*
X108275Y185236D01*
X108277Y185219D01*
X108276Y185204D01*
X108276Y185202D01*
X108276Y185197D01*
X108298Y185095D01*
X108314Y184993D01*
X108324Y184976D01*
X108328Y184956D01*
X108381Y184867D01*
X108430Y184776D01*
X108444Y184762D01*
X108454Y184745D01*
X108533Y184678D01*
X108608Y184606D01*
X108626Y184598D01*
X108641Y184585D01*
X108737Y184546D01*
X108831Y184503D01*
X108851Y184501D01*
X108869Y184493D01*
X109036Y184475D01*
X113132Y184475D01*
X113462Y184145D01*
X113478Y184133D01*
X113490Y184117D01*
X113577Y184061D01*
X113661Y184001D01*
X113680Y183995D01*
X113697Y183984D01*
X113798Y183959D01*
X113897Y183929D01*
X113916Y183929D01*
X113936Y183924D01*
X114039Y183932D01*
X114142Y183935D01*
X114161Y183942D01*
X114181Y183943D01*
X114276Y183984D01*
X114373Y184019D01*
X114389Y184032D01*
X114407Y184040D01*
X114538Y184145D01*
X114868Y184475D01*
X119632Y184475D01*
X119962Y184145D01*
X119978Y184133D01*
X119990Y184117D01*
X120077Y184061D01*
X120161Y184001D01*
X120180Y183995D01*
X120197Y183984D01*
X120298Y183959D01*
X120397Y183929D01*
X120416Y183929D01*
X120436Y183924D01*
X120539Y183932D01*
X120642Y183935D01*
X120661Y183942D01*
X120681Y183943D01*
X120776Y183984D01*
X120873Y184019D01*
X120889Y184032D01*
X120907Y184040D01*
X121038Y184145D01*
X121368Y184475D01*
X126132Y184475D01*
X126462Y184145D01*
X126478Y184133D01*
X126490Y184117D01*
X126577Y184061D01*
X126661Y184001D01*
X126680Y183995D01*
X126697Y183984D01*
X126798Y183959D01*
X126897Y183929D01*
X126916Y183929D01*
X126936Y183924D01*
X127039Y183932D01*
X127142Y183935D01*
X127161Y183942D01*
X127181Y183943D01*
X127276Y183984D01*
X127373Y184019D01*
X127389Y184032D01*
X127407Y184040D01*
X127538Y184145D01*
X127868Y184475D01*
X132632Y184475D01*
X132962Y184145D01*
X132978Y184133D01*
X132990Y184117D01*
X133077Y184061D01*
X133161Y184001D01*
X133180Y183995D01*
X133197Y183984D01*
X133298Y183959D01*
X133397Y183929D01*
X133416Y183929D01*
X133436Y183924D01*
X133539Y183932D01*
X133642Y183935D01*
X133661Y183942D01*
X133681Y183943D01*
X133776Y183984D01*
X133873Y184019D01*
X133889Y184032D01*
X133907Y184040D01*
X134038Y184145D01*
X134368Y184475D01*
X139132Y184475D01*
X139462Y184145D01*
X139478Y184133D01*
X139490Y184117D01*
X139577Y184061D01*
X139661Y184001D01*
X139680Y183995D01*
X139697Y183984D01*
X139798Y183959D01*
X139897Y183929D01*
X139916Y183929D01*
X139936Y183924D01*
X140039Y183932D01*
X140142Y183935D01*
X140161Y183942D01*
X140181Y183943D01*
X140276Y183984D01*
X140373Y184019D01*
X140389Y184032D01*
X140407Y184040D01*
X140538Y184145D01*
X140868Y184475D01*
X145632Y184475D01*
X146525Y183582D01*
X146525Y173818D01*
X146014Y173307D01*
X145961Y173233D01*
X145901Y173164D01*
X145889Y173134D01*
X145870Y173108D01*
X145843Y173021D01*
X145809Y172936D01*
X145805Y172895D01*
X145798Y172873D01*
X145799Y172840D01*
X145791Y172769D01*
X145791Y164423D01*
X128621Y147253D01*
X128568Y147179D01*
X128508Y147109D01*
X128496Y147079D01*
X128477Y147053D01*
X128450Y146966D01*
X128416Y146881D01*
X128412Y146840D01*
X128405Y146818D01*
X128406Y146786D01*
X128398Y146714D01*
X128398Y144156D01*
X125719Y141477D01*
X121931Y141477D01*
X121315Y142093D01*
X121257Y142135D01*
X121205Y142184D01*
X121158Y142206D01*
X121116Y142236D01*
X121047Y142258D01*
X120982Y142288D01*
X120930Y142293D01*
X120880Y142309D01*
X120809Y142307D01*
X120738Y142315D01*
X120687Y142304D01*
X120635Y142302D01*
X120567Y142278D01*
X120497Y142263D01*
X120452Y142236D01*
X120404Y142218D01*
X120348Y142173D01*
X120286Y142136D01*
X120252Y142097D01*
X120212Y142064D01*
X120173Y142004D01*
X120126Y141950D01*
X120107Y141901D01*
X120079Y141857D01*
X120061Y141788D01*
X120034Y141721D01*
X120026Y141650D01*
X120018Y141619D01*
X120020Y141596D01*
X120016Y141555D01*
X120016Y138684D01*
X120019Y138664D01*
X120017Y138645D01*
X120039Y138543D01*
X120055Y138441D01*
X120065Y138424D01*
X120069Y138404D01*
X120122Y138315D01*
X120171Y138224D01*
X120185Y138210D01*
X120195Y138193D01*
X120274Y138126D01*
X120349Y138054D01*
X120367Y138046D01*
X120382Y138033D01*
X120478Y137994D01*
X120572Y137951D01*
X120592Y137949D01*
X120610Y137941D01*
X120777Y137923D01*
X122544Y137923D01*
X125223Y135244D01*
X125223Y131456D01*
X122544Y128777D01*
X118756Y128777D01*
X118344Y129189D01*
X118270Y129242D01*
X118200Y129302D01*
X118170Y129314D01*
X118144Y129333D01*
X118057Y129360D01*
X117972Y129394D01*
X117931Y129398D01*
X117909Y129405D01*
X117877Y129404D01*
X117806Y129412D01*
X110794Y129412D01*
X110704Y129398D01*
X110613Y129390D01*
X110584Y129378D01*
X110552Y129373D01*
X110471Y129330D01*
X110387Y129294D01*
X110355Y129268D01*
X110334Y129257D01*
X110312Y129234D01*
X110256Y129189D01*
X109844Y128777D01*
X106056Y128777D01*
X103377Y131456D01*
X103377Y135244D01*
X105186Y137053D01*
X105239Y137127D01*
X105299Y137197D01*
X105311Y137227D01*
X105330Y137253D01*
X105357Y137340D01*
X105391Y137425D01*
X105395Y137466D01*
X105402Y137488D01*
X105401Y137520D01*
X105409Y137591D01*
X105409Y149007D01*
X111312Y154910D01*
X111353Y154968D01*
X111403Y155020D01*
X111425Y155067D01*
X111455Y155109D01*
X111476Y155178D01*
X111506Y155243D01*
X111512Y155295D01*
X111528Y155345D01*
X111526Y155416D01*
X111534Y155487D01*
X111522Y155538D01*
X111521Y155590D01*
X111497Y155658D01*
X111481Y155728D01*
X111455Y155773D01*
X111437Y155821D01*
X111392Y155877D01*
X111355Y155939D01*
X111316Y155973D01*
X111283Y156013D01*
X111223Y156052D01*
X111168Y156099D01*
X111120Y156118D01*
X111076Y156146D01*
X111007Y156164D01*
X110940Y156191D01*
X110869Y156199D01*
X110838Y156207D01*
X110814Y156205D01*
X110773Y156209D01*
X84673Y156209D01*
X67116Y173766D01*
X67042Y173819D01*
X66972Y173879D01*
X66942Y173891D01*
X66916Y173910D01*
X66829Y173937D01*
X66744Y173971D01*
X66703Y173975D01*
X66681Y173982D01*
X66649Y173981D01*
X66577Y173989D01*
X35023Y173989D01*
X34933Y173975D01*
X34842Y173967D01*
X34812Y173955D01*
X34780Y173950D01*
X34699Y173907D01*
X34615Y173871D01*
X34583Y173845D01*
X34563Y173834D01*
X34540Y173811D01*
X34484Y173766D01*
X26259Y165541D01*
X26206Y165467D01*
X26146Y165397D01*
X26134Y165367D01*
X26115Y165341D01*
X26088Y165254D01*
X26054Y165169D01*
X26050Y165128D01*
X26043Y165106D01*
X26044Y165074D01*
X26036Y165002D01*
X26036Y108048D01*
X26050Y107958D01*
X26058Y107867D01*
X26070Y107837D01*
X26075Y107805D01*
X26118Y107724D01*
X26154Y107640D01*
X26180Y107608D01*
X26191Y107588D01*
X26214Y107565D01*
X26259Y107509D01*
X78934Y54834D01*
X79008Y54781D01*
X79078Y54721D01*
X79108Y54709D01*
X79134Y54690D01*
X79221Y54663D01*
X79306Y54629D01*
X79347Y54625D01*
X79369Y54618D01*
X79401Y54619D01*
X79473Y54611D01*
X107852Y54611D01*
X107942Y54625D01*
X108033Y54633D01*
X108063Y54645D01*
X108095Y54650D01*
X108176Y54693D01*
X108260Y54729D01*
X108292Y54755D01*
X108312Y54766D01*
X108335Y54789D01*
X108391Y54834D01*
X113478Y59921D01*
X113531Y59995D01*
X113591Y60065D01*
X113603Y60095D01*
X113622Y60121D01*
X113649Y60208D01*
X113683Y60293D01*
X113687Y60334D01*
X113694Y60356D01*
X113693Y60388D01*
X113695Y60401D01*
X113752Y60459D01*
X113805Y60533D01*
X113865Y60602D01*
X113877Y60632D01*
X113896Y60658D01*
X113923Y60746D01*
X113957Y60830D01*
X113961Y60871D01*
X113968Y60893D01*
X113967Y60926D01*
X113975Y60997D01*
X113975Y71307D01*
X114868Y72200D01*
X119126Y72200D01*
X119146Y72203D01*
X119165Y72201D01*
X119267Y72223D01*
X119369Y72239D01*
X119386Y72249D01*
X119406Y72253D01*
X119495Y72306D01*
X119586Y72355D01*
X119600Y72369D01*
X119617Y72379D01*
X119684Y72458D01*
X119756Y72533D01*
X119764Y72551D01*
X119777Y72566D01*
X119816Y72662D01*
X119859Y72756D01*
X119861Y72776D01*
X119869Y72794D01*
X119887Y72961D01*
X119887Y76229D01*
X119873Y76319D01*
X119865Y76410D01*
X119853Y76440D01*
X119848Y76472D01*
X119805Y76553D01*
X119769Y76637D01*
X119743Y76669D01*
X119732Y76689D01*
X119709Y76712D01*
X119664Y76768D01*
X36128Y160304D01*
X36054Y160357D01*
X35984Y160417D01*
X35954Y160429D01*
X35928Y160448D01*
X35841Y160475D01*
X35756Y160509D01*
X35715Y160513D01*
X35693Y160520D01*
X35661Y160519D01*
X35589Y160527D01*
X33031Y160527D01*
X30352Y163206D01*
X30352Y166994D01*
X33031Y169673D01*
X36819Y169673D01*
X39498Y166994D01*
X39498Y164436D01*
X39512Y164346D01*
X39520Y164255D01*
X39532Y164225D01*
X39537Y164193D01*
X39580Y164112D01*
X39616Y164028D01*
X39642Y163996D01*
X39653Y163976D01*
X39676Y163953D01*
X39721Y163897D01*
X57945Y145673D01*
X58003Y145631D01*
X58055Y145582D01*
X58103Y145560D01*
X58145Y145529D01*
X58213Y145508D01*
X58279Y145478D01*
X58330Y145472D01*
X58380Y145457D01*
X58452Y145459D01*
X58523Y145451D01*
X58574Y145462D01*
X58626Y145463D01*
X58693Y145488D01*
X58763Y145503D01*
X58808Y145530D01*
X58857Y145548D01*
X58913Y145593D01*
X58974Y145629D01*
X59008Y145669D01*
X59049Y145702D01*
X59088Y145762D01*
X59134Y145816D01*
X59154Y145865D01*
X59182Y145908D01*
X59199Y145978D01*
X59226Y146044D01*
X59234Y146116D01*
X59242Y146147D01*
X59240Y146170D01*
X59245Y146211D01*
X59245Y150167D01*
X61923Y152845D01*
X65712Y152845D01*
X68390Y150167D01*
X68390Y149763D01*
X68405Y149673D01*
X68412Y149582D01*
X68425Y149553D01*
X68430Y149521D01*
X68473Y149440D01*
X68508Y149356D01*
X68534Y149324D01*
X68545Y149303D01*
X68568Y149281D01*
X68613Y149225D01*
X115248Y102590D01*
X115322Y102537D01*
X115392Y102478D01*
X115422Y102465D01*
X115448Y102447D01*
X115535Y102420D01*
X115620Y102386D01*
X115661Y102381D01*
X115683Y102374D01*
X115715Y102375D01*
X115786Y102367D01*
X150401Y102367D01*
X150491Y102382D01*
X150582Y102389D01*
X150612Y102402D01*
X150644Y102407D01*
X150724Y102450D01*
X150808Y102485D01*
X150841Y102511D01*
X150861Y102522D01*
X150883Y102545D01*
X150939Y102590D01*
X152367Y104018D01*
X152409Y104077D01*
X152453Y104123D01*
X152461Y104140D01*
X152479Y104161D01*
X152491Y104191D01*
X152510Y104217D01*
X152536Y104302D01*
X152557Y104346D01*
X152558Y104356D01*
X152571Y104389D01*
X152576Y104430D01*
X152583Y104453D01*
X152582Y104485D01*
X152590Y104556D01*
X152590Y104959D01*
X155268Y107638D01*
X159057Y107638D01*
X159342Y107353D01*
X159416Y107299D01*
X159485Y107240D01*
X159515Y107228D01*
X159541Y107209D01*
X159628Y107182D01*
X159713Y107148D01*
X159754Y107144D01*
X159776Y107137D01*
X159809Y107138D01*
X159880Y107130D01*
X170916Y107130D01*
X171006Y107144D01*
X171097Y107152D01*
X171127Y107164D01*
X171159Y107169D01*
X171239Y107212D01*
X171323Y107248D01*
X171355Y107274D01*
X171376Y107285D01*
X171398Y107308D01*
X171454Y107353D01*
X172089Y107988D01*
X184625Y120523D01*
X184678Y120597D01*
X184737Y120667D01*
X184750Y120697D01*
X184768Y120723D01*
X184795Y120810D01*
X184829Y120895D01*
X184834Y120936D01*
X184841Y120958D01*
X184840Y120990D01*
X184848Y121061D01*
X184848Y128905D01*
X184840Y128950D01*
X184841Y128951D01*
X184840Y128955D01*
X184833Y128995D01*
X184826Y129086D01*
X184813Y129116D01*
X184808Y129148D01*
X184790Y129181D01*
X184788Y129191D01*
X184764Y129232D01*
X184730Y129312D01*
X184704Y129345D01*
X184693Y129365D01*
X184673Y129384D01*
X184662Y129402D01*
X184648Y129414D01*
X184625Y129443D01*
X184340Y129728D01*
X184340Y133517D01*
X185641Y134818D01*
X185694Y134892D01*
X185753Y134961D01*
X185765Y134991D01*
X185784Y135017D01*
X185811Y135104D01*
X185845Y135189D01*
X185850Y135230D01*
X185857Y135252D01*
X185856Y135285D01*
X185864Y135356D01*
X185864Y161934D01*
X185849Y162024D01*
X185842Y162115D01*
X185829Y162145D01*
X185824Y162177D01*
X185781Y162258D01*
X185746Y162342D01*
X185720Y162374D01*
X185709Y162394D01*
X185686Y162417D01*
X185641Y162473D01*
X181459Y166654D01*
X181385Y166707D01*
X181316Y166767D01*
X181286Y166779D01*
X181259Y166798D01*
X181172Y166825D01*
X181088Y166859D01*
X181047Y166863D01*
X181024Y166870D01*
X180992Y166869D01*
X180921Y166877D01*
X179081Y166877D01*
X176402Y169556D01*
X176402Y173344D01*
X179081Y176023D01*
X182869Y176023D01*
X185548Y173344D01*
X185548Y171504D01*
X185562Y171414D01*
X185570Y171323D01*
X185582Y171293D01*
X185587Y171261D01*
X185630Y171181D01*
X185666Y171097D01*
X185692Y171065D01*
X185703Y171044D01*
X185726Y171022D01*
X185771Y170966D01*
X191961Y164775D01*
X191961Y135356D01*
X191976Y135266D01*
X191983Y135175D01*
X191996Y135145D01*
X192001Y135113D01*
X192044Y135033D01*
X192079Y134949D01*
X192105Y134916D01*
X192116Y134896D01*
X192139Y134874D01*
X192184Y134818D01*
X193485Y133517D01*
X193485Y129728D01*
X193200Y129443D01*
X193157Y129384D01*
X193115Y129339D01*
X193108Y129324D01*
X193088Y129300D01*
X193076Y129270D01*
X193057Y129244D01*
X193030Y129157D01*
X193027Y129150D01*
X193012Y129116D01*
X193011Y129109D01*
X192996Y129072D01*
X192991Y129031D01*
X192984Y129009D01*
X192985Y128976D01*
X192977Y128905D01*
X192977Y117379D01*
X179837Y104238D01*
X179825Y104222D01*
X179809Y104210D01*
X179753Y104122D01*
X179693Y104039D01*
X179687Y104020D01*
X179676Y104003D01*
X179651Y103902D01*
X179621Y103803D01*
X179621Y103784D01*
X179616Y103764D01*
X179624Y103661D01*
X179627Y103558D01*
X179634Y103539D01*
X179636Y103519D01*
X179676Y103424D01*
X179712Y103327D01*
X179724Y103311D01*
X179732Y103293D01*
X179837Y103162D01*
X191390Y91609D01*
X191390Y88442D01*
X191404Y88352D01*
X191412Y88261D01*
X191424Y88232D01*
X191429Y88200D01*
X191472Y88119D01*
X191508Y88035D01*
X191534Y88003D01*
X191545Y87982D01*
X191568Y87960D01*
X191613Y87904D01*
X191898Y87619D01*
X191898Y83831D01*
X189219Y81152D01*
X185431Y81152D01*
X182752Y83831D01*
X182752Y87619D01*
X182779Y87646D01*
X182791Y87662D01*
X182806Y87675D01*
X182862Y87762D01*
X182923Y87846D01*
X182928Y87865D01*
X182939Y87881D01*
X182965Y87982D01*
X182995Y88081D01*
X182994Y88101D01*
X182999Y88120D01*
X182991Y88223D01*
X182989Y88327D01*
X182982Y88345D01*
X182980Y88365D01*
X182940Y88460D01*
X182904Y88558D01*
X182892Y88573D01*
X182884Y88592D01*
X182779Y88723D01*
X172724Y98777D01*
X172650Y98830D01*
X172581Y98890D01*
X172551Y98902D01*
X172525Y98921D01*
X172438Y98948D01*
X172353Y98982D01*
X172312Y98986D01*
X172289Y98993D01*
X172257Y98992D01*
X172186Y99000D01*
X159880Y99000D01*
X159790Y98986D01*
X159699Y98978D01*
X159669Y98966D01*
X159637Y98961D01*
X159557Y98918D01*
X159473Y98882D01*
X159440Y98856D01*
X159420Y98845D01*
X159398Y98822D01*
X159342Y98777D01*
X159057Y98492D01*
X158653Y98492D01*
X158563Y98478D01*
X158472Y98470D01*
X158443Y98458D01*
X158411Y98453D01*
X158330Y98410D01*
X158246Y98374D01*
X158214Y98348D01*
X158193Y98337D01*
X158171Y98314D01*
X158115Y98269D01*
X156688Y96842D01*
X156635Y96768D01*
X156575Y96698D01*
X156563Y96668D01*
X156544Y96642D01*
X156517Y96555D01*
X156483Y96470D01*
X156479Y96429D01*
X156472Y96407D01*
X156473Y96375D01*
X156465Y96304D01*
X156465Y72182D01*
X156479Y72092D01*
X156487Y72001D01*
X156499Y71971D01*
X156504Y71939D01*
X156547Y71858D01*
X156583Y71775D01*
X156609Y71742D01*
X156620Y71722D01*
X156643Y71700D01*
X156688Y71644D01*
X157025Y71307D01*
X157025Y60043D01*
X156132Y59150D01*
X148868Y59150D01*
X147975Y60043D01*
X147975Y71307D01*
X148112Y71444D01*
X148165Y71518D01*
X148225Y71587D01*
X148237Y71617D01*
X148256Y71643D01*
X148283Y71730D01*
X148317Y71815D01*
X148321Y71856D01*
X148328Y71878D01*
X148327Y71911D01*
X148335Y71982D01*
X148335Y73356D01*
X148333Y73369D01*
X148334Y73379D01*
X148324Y73428D01*
X148322Y73498D01*
X148304Y73547D01*
X148296Y73598D01*
X148262Y73662D01*
X148237Y73729D01*
X148205Y73770D01*
X148180Y73816D01*
X148128Y73865D01*
X148084Y73921D01*
X148040Y73949D01*
X148002Y73985D01*
X147937Y74015D01*
X147877Y74054D01*
X147826Y74067D01*
X147779Y74089D01*
X147708Y74097D01*
X147638Y74114D01*
X147586Y74110D01*
X147535Y74116D01*
X147464Y74101D01*
X147393Y74095D01*
X147345Y74075D01*
X147294Y74064D01*
X147233Y74027D01*
X147167Y73999D01*
X147111Y73954D01*
X147083Y73937D01*
X147068Y73920D01*
X147036Y73894D01*
X144769Y71627D01*
X140786Y71627D01*
X140766Y71624D01*
X140747Y71626D01*
X140645Y71604D01*
X140543Y71588D01*
X140526Y71578D01*
X140506Y71574D01*
X140417Y71521D01*
X140326Y71472D01*
X140312Y71458D01*
X140295Y71448D01*
X140228Y71369D01*
X140156Y71294D01*
X140148Y71276D01*
X140135Y71261D01*
X140096Y71165D01*
X140053Y71071D01*
X140051Y71051D01*
X140043Y71033D01*
X140025Y70866D01*
X140025Y60997D01*
X140039Y60907D01*
X140047Y60816D01*
X140059Y60786D01*
X140064Y60754D01*
X140107Y60674D01*
X140143Y60590D01*
X140169Y60558D01*
X140180Y60537D01*
X140203Y60515D01*
X140248Y60459D01*
X140299Y60408D01*
X140299Y56432D01*
X137488Y53621D01*
X133512Y53621D01*
X132414Y54719D01*
X132398Y54731D01*
X132386Y54747D01*
X132298Y54803D01*
X132214Y54863D01*
X132195Y54869D01*
X132179Y54880D01*
X132078Y54905D01*
X131979Y54935D01*
X131959Y54935D01*
X131940Y54940D01*
X131837Y54932D01*
X131733Y54929D01*
X131715Y54922D01*
X131695Y54921D01*
X131600Y54880D01*
X131502Y54845D01*
X131487Y54832D01*
X131469Y54824D01*
X131338Y54719D01*
X121702Y45084D01*
X75148Y45084D01*
G37*
%LPD*%
%LPC*%
G36*
X27453Y251445D02*
X27453Y251445D01*
X19512Y254734D01*
X13434Y260812D01*
X10145Y268753D01*
X10145Y277347D01*
X13434Y285288D01*
X19512Y291366D01*
X27453Y294655D01*
X36047Y294655D01*
X43988Y291366D01*
X50066Y285288D01*
X53355Y277347D01*
X53355Y268753D01*
X50066Y260812D01*
X43988Y254734D01*
X36047Y251445D01*
X27453Y251445D01*
G37*
%LPD*%
%LPC*%
G36*
X217953Y10145D02*
X217953Y10145D01*
X210012Y13434D01*
X203934Y19512D01*
X200645Y27453D01*
X200645Y36047D01*
X203934Y43988D01*
X210012Y50066D01*
X217953Y53355D01*
X226547Y53355D01*
X234488Y50066D01*
X240566Y43988D01*
X243855Y36047D01*
X243855Y27453D01*
X240566Y19512D01*
X234488Y13434D01*
X226547Y10145D01*
X217953Y10145D01*
G37*
%LPD*%
%LPC*%
G36*
X217953Y251445D02*
X217953Y251445D01*
X210012Y254734D01*
X203934Y260812D01*
X200645Y268753D01*
X200645Y277347D01*
X203934Y285288D01*
X210012Y291366D01*
X217953Y294655D01*
X226547Y294655D01*
X234488Y291366D01*
X240566Y285288D01*
X243855Y277347D01*
X243855Y268753D01*
X240566Y260812D01*
X234488Y254734D01*
X226547Y251445D01*
X217953Y251445D01*
G37*
%LPD*%
%LPC*%
G36*
X27453Y10145D02*
X27453Y10145D01*
X19512Y13434D01*
X13434Y19512D01*
X10145Y27453D01*
X10145Y36047D01*
X13434Y43988D01*
X19512Y50066D01*
X27453Y53355D01*
X36047Y53355D01*
X43988Y50066D01*
X50066Y43988D01*
X53355Y36047D01*
X53355Y27453D01*
X50066Y19512D01*
X43988Y13434D01*
X36047Y10145D01*
X27453Y10145D01*
G37*
%LPD*%
%LPC*%
G36*
X160031Y185927D02*
X160031Y185927D01*
X157352Y188606D01*
X157352Y189414D01*
X157349Y189434D01*
X157351Y189453D01*
X157329Y189555D01*
X157313Y189657D01*
X157303Y189674D01*
X157299Y189694D01*
X157246Y189783D01*
X157197Y189874D01*
X157183Y189888D01*
X157173Y189905D01*
X157094Y189972D01*
X157019Y190044D01*
X157001Y190052D01*
X156986Y190065D01*
X156890Y190104D01*
X156796Y190147D01*
X156776Y190149D01*
X156758Y190157D01*
X156591Y190175D01*
X146618Y190175D01*
X145725Y191068D01*
X145725Y195832D01*
X146055Y196162D01*
X146067Y196178D01*
X146083Y196190D01*
X146139Y196277D01*
X146199Y196361D01*
X146205Y196380D01*
X146216Y196397D01*
X146241Y196498D01*
X146271Y196597D01*
X146271Y196616D01*
X146276Y196636D01*
X146268Y196739D01*
X146265Y196842D01*
X146258Y196861D01*
X146257Y196881D01*
X146216Y196976D01*
X146181Y197073D01*
X146168Y197089D01*
X146160Y197107D01*
X146055Y197238D01*
X145725Y197568D01*
X145725Y202332D01*
X146055Y202662D01*
X146067Y202678D01*
X146083Y202690D01*
X146139Y202777D01*
X146199Y202861D01*
X146205Y202880D01*
X146216Y202897D01*
X146241Y202998D01*
X146271Y203097D01*
X146271Y203116D01*
X146276Y203136D01*
X146268Y203239D01*
X146265Y203342D01*
X146258Y203361D01*
X146257Y203381D01*
X146216Y203476D01*
X146181Y203573D01*
X146168Y203589D01*
X146160Y203607D01*
X146055Y203738D01*
X145725Y204068D01*
X145725Y208832D01*
X146055Y209162D01*
X146067Y209178D01*
X146083Y209190D01*
X146139Y209277D01*
X146199Y209361D01*
X146205Y209380D01*
X146216Y209397D01*
X146241Y209498D01*
X146271Y209597D01*
X146271Y209616D01*
X146276Y209636D01*
X146268Y209739D01*
X146265Y209842D01*
X146258Y209861D01*
X146257Y209881D01*
X146216Y209976D01*
X146181Y210073D01*
X146168Y210089D01*
X146160Y210107D01*
X146055Y210238D01*
X145725Y210568D01*
X145725Y215332D01*
X146055Y215662D01*
X146067Y215678D01*
X146083Y215690D01*
X146139Y215777D01*
X146199Y215861D01*
X146205Y215880D01*
X146216Y215897D01*
X146241Y215998D01*
X146271Y216097D01*
X146271Y216116D01*
X146276Y216136D01*
X146268Y216239D01*
X146265Y216342D01*
X146258Y216361D01*
X146257Y216381D01*
X146216Y216476D01*
X146181Y216573D01*
X146168Y216589D01*
X146160Y216607D01*
X146055Y216738D01*
X145725Y217068D01*
X145725Y221164D01*
X145722Y221184D01*
X145724Y221203D01*
X145702Y221305D01*
X145686Y221407D01*
X145676Y221424D01*
X145672Y221444D01*
X145619Y221533D01*
X145570Y221624D01*
X145556Y221638D01*
X145546Y221655D01*
X145467Y221722D01*
X145392Y221794D01*
X145374Y221802D01*
X145359Y221815D01*
X145263Y221854D01*
X145169Y221897D01*
X145149Y221899D01*
X145131Y221907D01*
X144964Y221925D01*
X140868Y221925D01*
X139975Y222818D01*
X139975Y232582D01*
X139978Y232585D01*
X140031Y232659D01*
X140091Y232728D01*
X140103Y232758D01*
X140122Y232784D01*
X140149Y232871D01*
X140183Y232956D01*
X140187Y232997D01*
X140194Y233019D01*
X140193Y233052D01*
X140201Y233123D01*
X140201Y233413D01*
X141254Y234466D01*
X141307Y234540D01*
X141367Y234609D01*
X141379Y234639D01*
X141398Y234666D01*
X141425Y234753D01*
X141459Y234837D01*
X141463Y234878D01*
X141470Y234901D01*
X141469Y234933D01*
X141477Y235004D01*
X141477Y236844D01*
X144156Y239523D01*
X147944Y239523D01*
X150623Y236844D01*
X150623Y233056D01*
X147944Y230377D01*
X147286Y230377D01*
X147266Y230374D01*
X147247Y230376D01*
X147145Y230354D01*
X147043Y230338D01*
X147026Y230328D01*
X147006Y230324D01*
X146917Y230271D01*
X146826Y230222D01*
X146812Y230208D01*
X146795Y230198D01*
X146728Y230119D01*
X146656Y230044D01*
X146648Y230026D01*
X146635Y230011D01*
X146596Y229915D01*
X146553Y229821D01*
X146551Y229801D01*
X146543Y229783D01*
X146525Y229616D01*
X146525Y223486D01*
X146528Y223466D01*
X146526Y223447D01*
X146548Y223345D01*
X146564Y223243D01*
X146574Y223226D01*
X146578Y223206D01*
X146631Y223117D01*
X146680Y223026D01*
X146694Y223012D01*
X146704Y222995D01*
X146783Y222928D01*
X146858Y222856D01*
X146876Y222848D01*
X146891Y222835D01*
X146987Y222796D01*
X147081Y222753D01*
X147101Y222751D01*
X147119Y222743D01*
X147286Y222725D01*
X156382Y222725D01*
X157275Y221832D01*
X157275Y217068D01*
X156945Y216738D01*
X156933Y216722D01*
X156917Y216710D01*
X156861Y216623D01*
X156801Y216539D01*
X156795Y216520D01*
X156784Y216503D01*
X156759Y216402D01*
X156729Y216303D01*
X156729Y216284D01*
X156724Y216264D01*
X156732Y216161D01*
X156735Y216058D01*
X156742Y216039D01*
X156743Y216019D01*
X156784Y215924D01*
X156819Y215827D01*
X156832Y215811D01*
X156840Y215793D01*
X156945Y215662D01*
X157275Y215332D01*
X157275Y210568D01*
X156945Y210238D01*
X156933Y210222D01*
X156917Y210210D01*
X156861Y210123D01*
X156801Y210039D01*
X156795Y210020D01*
X156784Y210003D01*
X156759Y209902D01*
X156729Y209803D01*
X156729Y209784D01*
X156724Y209764D01*
X156732Y209661D01*
X156735Y209558D01*
X156742Y209539D01*
X156743Y209519D01*
X156784Y209424D01*
X156819Y209327D01*
X156832Y209311D01*
X156840Y209293D01*
X156945Y209162D01*
X157275Y208832D01*
X157275Y204068D01*
X156945Y203738D01*
X156933Y203722D01*
X156917Y203710D01*
X156861Y203623D01*
X156801Y203539D01*
X156795Y203520D01*
X156784Y203503D01*
X156759Y203402D01*
X156729Y203303D01*
X156729Y203284D01*
X156724Y203264D01*
X156732Y203161D01*
X156735Y203058D01*
X156742Y203039D01*
X156743Y203019D01*
X156784Y202924D01*
X156819Y202827D01*
X156832Y202811D01*
X156840Y202793D01*
X156945Y202662D01*
X157275Y202332D01*
X157275Y197260D01*
X157278Y197240D01*
X157276Y197221D01*
X157298Y197119D01*
X157314Y197017D01*
X157324Y197000D01*
X157328Y196980D01*
X157381Y196891D01*
X157430Y196800D01*
X157444Y196786D01*
X157454Y196769D01*
X157533Y196702D01*
X157608Y196630D01*
X157626Y196622D01*
X157641Y196609D01*
X157737Y196570D01*
X157831Y196527D01*
X157851Y196525D01*
X157869Y196517D01*
X158036Y196499D01*
X160238Y196499D01*
X161441Y195296D01*
X161515Y195243D01*
X161584Y195183D01*
X161614Y195171D01*
X161641Y195152D01*
X161728Y195125D01*
X161812Y195091D01*
X161853Y195087D01*
X161876Y195080D01*
X161908Y195081D01*
X161979Y195073D01*
X163819Y195073D01*
X166498Y192394D01*
X166498Y188606D01*
X163819Y185927D01*
X160031Y185927D01*
G37*
%LPD*%
G36*
X147664Y78295D02*
X147664Y78295D01*
X147716Y78297D01*
X147784Y78321D01*
X147854Y78336D01*
X147899Y78363D01*
X147947Y78381D01*
X148003Y78426D01*
X148065Y78463D01*
X148099Y78502D01*
X148139Y78535D01*
X148178Y78595D01*
X148225Y78649D01*
X148244Y78698D01*
X148272Y78742D01*
X148290Y78811D01*
X148317Y78878D01*
X148325Y78949D01*
X148333Y78980D01*
X148331Y79003D01*
X148335Y79044D01*
X148335Y93477D01*
X148332Y93496D01*
X148334Y93516D01*
X148312Y93617D01*
X148296Y93719D01*
X148286Y93737D01*
X148282Y93756D01*
X148229Y93845D01*
X148180Y93937D01*
X148166Y93950D01*
X148156Y93967D01*
X148077Y94035D01*
X148002Y94106D01*
X147984Y94114D01*
X147969Y94127D01*
X147873Y94166D01*
X147779Y94210D01*
X147759Y94212D01*
X147741Y94219D01*
X147574Y94238D01*
X115041Y94238D01*
X114951Y94223D01*
X114860Y94216D01*
X114830Y94203D01*
X114798Y94198D01*
X114718Y94155D01*
X114634Y94120D01*
X114602Y94094D01*
X114581Y94083D01*
X114559Y94060D01*
X114503Y94015D01*
X112591Y92103D01*
X112580Y92087D01*
X112564Y92075D01*
X112508Y91987D01*
X112448Y91904D01*
X112442Y91885D01*
X112431Y91868D01*
X112406Y91767D01*
X112375Y91669D01*
X112376Y91649D01*
X112371Y91629D01*
X112379Y91526D01*
X112382Y91423D01*
X112389Y91404D01*
X112390Y91384D01*
X112430Y91289D01*
X112466Y91192D01*
X112479Y91176D01*
X112486Y91158D01*
X112591Y91027D01*
X124654Y78964D01*
X124728Y78911D01*
X124798Y78851D01*
X124828Y78839D01*
X124854Y78820D01*
X124941Y78793D01*
X125026Y78759D01*
X125067Y78755D01*
X125089Y78748D01*
X125121Y78749D01*
X125193Y78741D01*
X138634Y78741D01*
X138724Y78755D01*
X138815Y78763D01*
X138844Y78775D01*
X138876Y78780D01*
X138957Y78823D01*
X139041Y78859D01*
X139073Y78885D01*
X139094Y78896D01*
X139116Y78919D01*
X139172Y78964D01*
X140981Y80773D01*
X144769Y80773D01*
X147036Y78506D01*
X147094Y78464D01*
X147146Y78415D01*
X147193Y78393D01*
X147235Y78363D01*
X147304Y78341D01*
X147369Y78311D01*
X147421Y78306D01*
X147471Y78290D01*
X147542Y78292D01*
X147613Y78284D01*
X147664Y78295D01*
G37*
%LPC*%
G36*
X71131Y89090D02*
X71131Y89090D01*
X69322Y90899D01*
X69248Y90952D01*
X69178Y91011D01*
X69148Y91024D01*
X69122Y91042D01*
X69035Y91069D01*
X68950Y91103D01*
X68909Y91108D01*
X68887Y91115D01*
X68855Y91114D01*
X68784Y91122D01*
X56629Y91122D01*
X56539Y91107D01*
X56448Y91100D01*
X56418Y91087D01*
X56386Y91082D01*
X56305Y91039D01*
X56222Y91004D01*
X56189Y90978D01*
X56169Y90967D01*
X56147Y90944D01*
X56091Y90899D01*
X55869Y90677D01*
X52081Y90677D01*
X49402Y93356D01*
X49402Y97144D01*
X52081Y99823D01*
X55869Y99823D01*
X58548Y97144D01*
X58548Y96964D01*
X58551Y96945D01*
X58549Y96925D01*
X58571Y96824D01*
X58587Y96722D01*
X58597Y96704D01*
X58601Y96685D01*
X58654Y96596D01*
X58703Y96504D01*
X58717Y96491D01*
X58727Y96474D01*
X58806Y96406D01*
X58881Y96335D01*
X58899Y96327D01*
X58914Y96314D01*
X59010Y96275D01*
X59104Y96231D01*
X59124Y96229D01*
X59142Y96222D01*
X59309Y96203D01*
X68784Y96203D01*
X68874Y96218D01*
X68965Y96225D01*
X68994Y96238D01*
X69026Y96243D01*
X69107Y96286D01*
X69191Y96321D01*
X69223Y96347D01*
X69244Y96358D01*
X69266Y96381D01*
X69322Y96426D01*
X71131Y98235D01*
X74919Y98235D01*
X77598Y95557D01*
X77598Y91768D01*
X74919Y89090D01*
X71131Y89090D01*
G37*
%LPD*%
D10*
X0Y0D02*
X254000Y0D01*
X254000Y304800D01*
X0Y304800D01*
X0Y0D01*
D11*
X102500Y219450D03*
X102500Y212950D03*
X102500Y206450D03*
X102500Y199950D03*
X102500Y193450D03*
X102500Y186950D03*
D12*
X110750Y178700D03*
X117250Y178700D03*
X123750Y178700D03*
X130250Y178700D03*
X136750Y178700D03*
X143250Y178700D03*
D11*
X151500Y186950D03*
X151500Y193450D03*
X151500Y199950D03*
X151500Y206450D03*
X151500Y212950D03*
X151500Y219450D03*
D12*
X143250Y227700D03*
X136750Y227700D03*
X130250Y227700D03*
X123750Y227700D03*
X117250Y227700D03*
X110750Y227700D03*
D13*
X127000Y203200D03*
D14*
X101500Y65675D03*
X118500Y65675D03*
X135500Y65675D03*
X152500Y65675D03*
D15*
X87750Y15175D03*
X166250Y15175D03*
D16*
X127000Y203200D03*
D17*
X193675Y101600D03*
X234950Y104775D03*
X120650Y88900D03*
X101600Y85725D03*
X107950Y62548D03*
X142875Y88900D03*
X144145Y65405D03*
X113983Y75883D03*
X73025Y41275D03*
X92075Y38100D03*
X57150Y53975D03*
X60325Y28575D03*
X161290Y29528D03*
X177165Y10478D03*
X128905Y9525D03*
X74930Y9525D03*
X34925Y76200D03*
X12700Y98425D03*
X9525Y123825D03*
X15875Y174625D03*
X31750Y190500D03*
X15875Y225425D03*
X44450Y225425D03*
X88900Y206375D03*
X79375Y184150D03*
X60325Y196850D03*
X66675Y168275D03*
X92075Y149225D03*
X75248Y147955D03*
X91440Y131445D03*
X50800Y136525D03*
X50800Y114300D03*
X76200Y114300D03*
X57150Y82550D03*
X33338Y108585D03*
X33338Y146368D03*
X155575Y47625D03*
X180975Y44450D03*
X200025Y57150D03*
X215900Y82550D03*
X238125Y66675D03*
X234950Y127000D03*
X234950Y149225D03*
X234950Y171450D03*
X165100Y146050D03*
X196850Y152400D03*
X197485Y128905D03*
X196850Y174625D03*
X155575Y177800D03*
X146050Y152400D03*
X127953Y138113D03*
X101600Y177800D03*
X85725Y238125D03*
X133350Y238125D03*
X171450Y209550D03*
X161925Y254000D03*
X127000Y285750D03*
X95250Y285750D03*
X63500Y285750D03*
X79375Y269875D03*
X111125Y269875D03*
X95250Y254000D03*
X63500Y254000D03*
X127000Y254000D03*
X142875Y269875D03*
X158750Y285750D03*
X174625Y269875D03*
X190500Y285750D03*
X190500Y254000D03*
X174625Y238125D03*
X190500Y222250D03*
X206375Y238125D03*
X222250Y222250D03*
X238125Y238125D03*
X238125Y206375D03*
X206375Y206375D03*
X222250Y190500D03*
X161925Y114300D03*
X141605Y106045D03*
X117793Y106045D03*
X12700Y60325D03*
X184150Y193675D03*
X141288Y217488D03*
X112713Y217488D03*
X112713Y188913D03*
X141288Y188913D03*
D18*
X31750Y273050D03*
X222250Y273050D03*
X222250Y31750D03*
X31750Y31750D03*
D17*
X188913Y131623D03*
X157163Y103065D03*
D19*
X174185Y103065D01*
X188913Y119063D02*
X188913Y131623D01*
X188913Y119063D02*
X173550Y103700D01*
X157163Y103065D02*
X152400Y98303D01*
D20*
X152400Y65775D02*
X152500Y65675D01*
D19*
X152400Y65775D02*
X152400Y98303D01*
X173550Y103700D02*
X174185Y103065D01*
X187325Y89925D01*
X187325Y85725D01*
D17*
X187325Y85725D03*
X63818Y148273D03*
D19*
X113788Y98303D01*
X152400Y98303D01*
D21*
X188913Y131623D02*
X188913Y163513D01*
X180975Y171450D01*
D17*
X180975Y171450D03*
X161925Y190500D03*
D21*
X158975Y193450D01*
X151500Y193450D01*
D17*
X146050Y234950D03*
D21*
X143250Y232150D01*
X143250Y227700D01*
D17*
X142875Y76200D03*
D22*
X123825Y76200D01*
D17*
X34925Y165100D03*
D22*
X123825Y76200D01*
D17*
X53975Y95250D03*
D22*
X55563Y93663D01*
X73025Y93663D01*
D17*
X73025Y93663D03*
D22*
X123750Y171375D02*
X123750Y178700D01*
X111125Y158750D02*
X85725Y158750D01*
X67945Y176530D01*
X33655Y176530D01*
X78105Y52070D02*
X109220Y52070D01*
X111125Y158750D02*
X123750Y171375D01*
X33655Y176530D02*
X23495Y166370D01*
X23495Y106680D01*
X78105Y52070D01*
X118500Y61350D02*
X118500Y65675D01*
X118500Y61350D02*
X109220Y52070D01*
D23*
X118500Y58420D02*
X118500Y65675D01*
D24*
X118500Y58420D03*
D22*
X117250Y171225D02*
X117250Y178700D01*
X117250Y171225D02*
X109220Y163195D01*
X69850Y180975D02*
X31750Y180975D01*
X87630Y163195D02*
X109220Y163195D01*
X87630Y163195D02*
X69850Y180975D01*
X19050Y168275D02*
X19050Y104775D01*
X76200Y47625D01*
X135500Y62475D02*
X135500Y65675D01*
X31750Y180975D02*
X19050Y168275D01*
X76200Y47625D02*
X120650Y47625D01*
X135500Y62475D01*
D23*
X135500Y65675D02*
X135500Y58420D01*
D24*
X135500Y58420D03*
D17*
X107950Y133350D03*
D22*
X107950Y147955D01*
X130250Y170255D02*
X130250Y178700D01*
X130250Y170255D02*
X107950Y147955D01*
D17*
X120650Y133350D03*
D22*
X117475Y136525D01*
X136750Y168818D02*
X136750Y178700D01*
X117475Y149543D02*
X117475Y136525D01*
X117475Y149543D02*
X136750Y168818D01*
D17*
X123825Y146050D03*
D22*
X143250Y165475D01*
X143250Y178700D01*
M02*
