M48
;GenerationSoftware,Autodesk,EAGLE,9.4.0*%
;CreationDate,2019-05-15T20:48:43Z*%
FMAT,2
ICI,OFF
METRIC,TZ,000.000
T4C0.305
T3C0.350
T2C1.500
T1C3.000
%
G90
M71
T1
X3175Y3175
X22225Y3175
X22225Y27305
X3175Y27305
T2
X12700Y20320
T3
X13550Y5842
X11850Y5842
T4
X14414Y6540
X11398Y7588
X7302Y4128
X9208Y3810
X5715Y5398
X6032Y2857
X16129Y2953
X17717Y1048
X12890Y952
X7493Y952
X3492Y7620
X1270Y9843
X952Y12382
X1587Y17463
X3175Y19050
X1587Y22542
X4445Y22542
X8890Y20638
X7937Y18415
X6032Y19685
X6667Y16828
X9208Y14922
X7525Y14795
X9144Y13144
X5080Y13652
X5080Y11430
X7620Y11430
X5715Y8255
X3334Y10859
X3334Y14637
X15557Y4763
X18098Y4445
X20003Y5715
X21590Y8255
X23812Y6667
X23495Y12700
X23495Y14922
X23495Y17145
X16510Y14605
X19685Y15240
X19749Y12890
X19685Y17463
X15557Y17780
X14605Y15240
X12795Y13811
X10160Y17780
X8573Y23812
X13335Y23812
X17145Y20955
X16192Y25400
X12700Y28575
X9525Y28575
X6350Y28575
X7937Y26987
X11112Y26987
X9525Y25400
X6350Y25400
X12700Y25400
X14287Y26987
X15875Y28575
X17463Y26987
X19050Y28575
X19050Y25400
X17463Y23812
X19050Y22225
X20638Y23812
X22225Y22225
X23812Y23812
X23812Y20638
X20638Y20638
X22225Y19050
X16192Y11430
X14160Y10605
X11779Y10605
X1270Y6032
X18415Y19368
X14129Y21749
X11271Y21749
X11271Y18891
X14129Y18891
X14287Y8890
X10795Y6255
X10160Y8573
X12065Y8890
X18891Y13162
X15716Y10307
X18733Y8573
X6382Y14827
X18098Y17145
X16192Y19050
X14605Y23495
X14287Y7620
X3492Y16510
X5398Y9525
X7302Y9366
X23495Y10478
X19368Y10160
X10795Y13335
X12065Y13335
X12382Y14605
M30