G04 EAGLE Gerber RS-274X export*
G75*
%MOMM*%
%FSLAX34Y34*%
%LPD*%
%INBottom layer*%
%IPPOS*%
%AMOC8*
5,1,8,0,0,1.08239X$1,22.5*%
G01*
%ADD10C,0.000000*%
%ADD11R,1.550000X0.600000*%
%ADD12R,1.800000X1.200000*%
%ADD13R,1.475000X0.300000*%
%ADD14R,0.300000X1.475000*%
%ADD15R,1.168400X1.600200*%
%ADD16R,0.700000X0.600000*%
%ADD17R,0.740000X0.925000*%
%ADD18R,1.080000X1.050000*%
%ADD19R,0.925000X0.740000*%
%ADD20R,1.050000X1.080000*%
%ADD21R,0.650000X1.050000*%
%ADD22C,2.250000*%
%ADD23C,0.609600*%
%ADD24C,4.016000*%
%ADD25C,0.203200*%
%ADD26C,0.304800*%
%ADD27C,0.254000*%
%ADD28C,0.508000*%
%ADD29C,0.654800*%
%ADD30C,0.152400*%

G36*
X247670Y5592D02*
X247670Y5592D01*
X247689Y5590D01*
X247791Y5612D01*
X247893Y5629D01*
X247910Y5638D01*
X247930Y5642D01*
X248019Y5695D01*
X248110Y5744D01*
X248124Y5758D01*
X248141Y5768D01*
X248208Y5847D01*
X248280Y5922D01*
X248288Y5940D01*
X248301Y5955D01*
X248340Y6051D01*
X248383Y6145D01*
X248385Y6165D01*
X248393Y6183D01*
X248411Y6350D01*
X248411Y298450D01*
X248408Y298470D01*
X248410Y298489D01*
X248388Y298591D01*
X248372Y298693D01*
X248362Y298710D01*
X248358Y298730D01*
X248305Y298819D01*
X248256Y298910D01*
X248242Y298924D01*
X248232Y298941D01*
X248153Y299008D01*
X248078Y299080D01*
X248060Y299088D01*
X248045Y299101D01*
X247949Y299140D01*
X247855Y299183D01*
X247835Y299185D01*
X247817Y299193D01*
X247650Y299211D01*
X6350Y299211D01*
X6330Y299208D01*
X6311Y299210D01*
X6209Y299188D01*
X6107Y299172D01*
X6090Y299162D01*
X6070Y299158D01*
X5981Y299105D01*
X5890Y299056D01*
X5876Y299042D01*
X5859Y299032D01*
X5792Y298953D01*
X5721Y298878D01*
X5712Y298860D01*
X5699Y298845D01*
X5660Y298749D01*
X5617Y298655D01*
X5615Y298635D01*
X5607Y298617D01*
X5589Y298450D01*
X5589Y209561D01*
X5592Y209541D01*
X5590Y209522D01*
X5612Y209420D01*
X5628Y209318D01*
X5638Y209301D01*
X5642Y209281D01*
X5695Y209192D01*
X5744Y209101D01*
X5758Y209087D01*
X5768Y209070D01*
X5847Y209003D01*
X5922Y208931D01*
X5940Y208923D01*
X5955Y208910D01*
X6051Y208871D01*
X6145Y208828D01*
X6165Y208826D01*
X6183Y208818D01*
X6350Y208800D01*
X25332Y208800D01*
X26225Y207907D01*
X26225Y194643D01*
X25332Y193750D01*
X6350Y193750D01*
X6330Y193747D01*
X6311Y193749D01*
X6209Y193727D01*
X6107Y193711D01*
X6090Y193701D01*
X6070Y193697D01*
X5981Y193644D01*
X5890Y193595D01*
X5876Y193581D01*
X5859Y193571D01*
X5792Y193492D01*
X5721Y193417D01*
X5712Y193399D01*
X5699Y193384D01*
X5660Y193288D01*
X5617Y193194D01*
X5615Y193174D01*
X5607Y193156D01*
X5589Y192989D01*
X5589Y143561D01*
X5592Y143541D01*
X5590Y143522D01*
X5612Y143420D01*
X5629Y143318D01*
X5638Y143301D01*
X5642Y143281D01*
X5695Y143192D01*
X5744Y143101D01*
X5758Y143087D01*
X5768Y143070D01*
X5847Y143003D01*
X5922Y142931D01*
X5940Y142923D01*
X5955Y142910D01*
X6051Y142871D01*
X6145Y142828D01*
X6165Y142826D01*
X6183Y142818D01*
X6350Y142800D01*
X25332Y142800D01*
X26225Y141907D01*
X26225Y128643D01*
X25332Y127750D01*
X6350Y127750D01*
X6330Y127747D01*
X6311Y127749D01*
X6209Y127727D01*
X6107Y127711D01*
X6090Y127701D01*
X6070Y127697D01*
X5981Y127644D01*
X5890Y127595D01*
X5876Y127581D01*
X5859Y127571D01*
X5792Y127492D01*
X5721Y127417D01*
X5712Y127399D01*
X5699Y127384D01*
X5660Y127288D01*
X5617Y127194D01*
X5615Y127174D01*
X5607Y127156D01*
X5589Y126989D01*
X5589Y6350D01*
X5592Y6330D01*
X5590Y6311D01*
X5612Y6209D01*
X5629Y6107D01*
X5638Y6090D01*
X5642Y6070D01*
X5695Y5981D01*
X5744Y5890D01*
X5758Y5876D01*
X5768Y5859D01*
X5847Y5792D01*
X5922Y5721D01*
X5940Y5712D01*
X5955Y5699D01*
X6051Y5660D01*
X6145Y5617D01*
X6165Y5615D01*
X6183Y5607D01*
X6350Y5589D01*
X247650Y5589D01*
X247670Y5592D01*
G37*
%LPC*%
G36*
X99168Y10650D02*
X99168Y10650D01*
X98275Y11543D01*
X98275Y20384D01*
X98294Y20443D01*
X98293Y20464D01*
X98298Y20483D01*
X98290Y20586D01*
X98287Y20689D01*
X98280Y20708D01*
X98279Y20728D01*
X98239Y20823D01*
X98203Y20920D01*
X98190Y20936D01*
X98183Y20955D01*
X98078Y21086D01*
X97035Y22128D01*
X96961Y22181D01*
X96892Y22241D01*
X96862Y22253D01*
X96835Y22272D01*
X96748Y22299D01*
X96664Y22333D01*
X96623Y22337D01*
X96600Y22344D01*
X96568Y22343D01*
X96497Y22351D01*
X74937Y22351D01*
X63626Y33662D01*
X63626Y98214D01*
X63623Y98234D01*
X63625Y98253D01*
X63603Y98355D01*
X63587Y98457D01*
X63577Y98474D01*
X63573Y98494D01*
X63520Y98583D01*
X63471Y98674D01*
X63457Y98688D01*
X63447Y98705D01*
X63368Y98772D01*
X63293Y98844D01*
X63275Y98852D01*
X63260Y98865D01*
X63164Y98904D01*
X63070Y98947D01*
X63050Y98949D01*
X63032Y98957D01*
X62865Y98975D01*
X62343Y98975D01*
X61450Y99868D01*
X61450Y110382D01*
X62343Y111275D01*
X71007Y111275D01*
X71900Y110382D01*
X71900Y107510D01*
X71903Y107490D01*
X71901Y107471D01*
X71923Y107369D01*
X71939Y107267D01*
X71949Y107250D01*
X71953Y107230D01*
X72006Y107141D01*
X72055Y107050D01*
X72069Y107036D01*
X72079Y107019D01*
X72158Y106952D01*
X72233Y106880D01*
X72251Y106872D01*
X72266Y106859D01*
X72362Y106820D01*
X72456Y106777D01*
X72476Y106775D01*
X72494Y106767D01*
X72661Y106749D01*
X86042Y106749D01*
X86055Y106743D01*
X86096Y106739D01*
X86118Y106732D01*
X86150Y106733D01*
X86222Y106725D01*
X92627Y106725D01*
X93520Y105832D01*
X93520Y101568D01*
X92627Y100675D01*
X86222Y100675D01*
X86132Y100660D01*
X86041Y100653D01*
X86036Y100651D01*
X77978Y100651D01*
X77958Y100648D01*
X77939Y100650D01*
X77837Y100628D01*
X77735Y100612D01*
X77718Y100602D01*
X77698Y100598D01*
X77609Y100545D01*
X77518Y100496D01*
X77504Y100482D01*
X77487Y100472D01*
X77420Y100393D01*
X77348Y100318D01*
X77340Y100300D01*
X77327Y100285D01*
X77288Y100189D01*
X77245Y100095D01*
X77243Y100075D01*
X77235Y100057D01*
X77217Y99890D01*
X77217Y97996D01*
X77195Y97966D01*
X77146Y97914D01*
X77124Y97867D01*
X77094Y97825D01*
X77072Y97756D01*
X77042Y97691D01*
X77037Y97639D01*
X77021Y97590D01*
X77023Y97518D01*
X77015Y97447D01*
X77026Y97396D01*
X77028Y97344D01*
X77052Y97276D01*
X77067Y97206D01*
X77094Y97161D01*
X77112Y97113D01*
X77157Y97057D01*
X77194Y96995D01*
X77233Y96961D01*
X77266Y96921D01*
X77326Y96882D01*
X77381Y96835D01*
X77429Y96816D01*
X77473Y96788D01*
X77542Y96770D01*
X77609Y96743D01*
X77680Y96735D01*
X77711Y96727D01*
X77734Y96729D01*
X77775Y96725D01*
X92627Y96725D01*
X93520Y95832D01*
X93520Y91464D01*
X93504Y91402D01*
X93474Y91303D01*
X93474Y91283D01*
X93469Y91264D01*
X93477Y91161D01*
X93480Y91058D01*
X93487Y91039D01*
X93488Y91019D01*
X93520Y90945D01*
X93520Y86464D01*
X93504Y86402D01*
X93474Y86303D01*
X93474Y86283D01*
X93469Y86264D01*
X93477Y86161D01*
X93480Y86058D01*
X93487Y86039D01*
X93488Y86019D01*
X93520Y85945D01*
X93520Y81464D01*
X93504Y81402D01*
X93474Y81303D01*
X93474Y81283D01*
X93469Y81264D01*
X93477Y81161D01*
X93480Y81058D01*
X93487Y81039D01*
X93488Y81019D01*
X93520Y80945D01*
X93520Y76464D01*
X93504Y76402D01*
X93474Y76303D01*
X93474Y76283D01*
X93469Y76264D01*
X93477Y76161D01*
X93480Y76058D01*
X93487Y76039D01*
X93488Y76019D01*
X93520Y75945D01*
X93520Y71464D01*
X93504Y71402D01*
X93474Y71303D01*
X93474Y71283D01*
X93469Y71264D01*
X93477Y71161D01*
X93480Y71058D01*
X93487Y71039D01*
X93488Y71019D01*
X93520Y70945D01*
X93520Y66464D01*
X93504Y66402D01*
X93474Y66303D01*
X93474Y66283D01*
X93469Y66264D01*
X93477Y66161D01*
X93480Y66058D01*
X93487Y66039D01*
X93488Y66019D01*
X93520Y65945D01*
X93520Y61464D01*
X93504Y61402D01*
X93474Y61303D01*
X93474Y61283D01*
X93469Y61264D01*
X93477Y61161D01*
X93480Y61058D01*
X93487Y61039D01*
X93488Y61019D01*
X93520Y60945D01*
X93520Y56464D01*
X93504Y56402D01*
X93474Y56303D01*
X93474Y56283D01*
X93469Y56264D01*
X93477Y56161D01*
X93480Y56058D01*
X93487Y56039D01*
X93488Y56019D01*
X93520Y55945D01*
X93520Y51464D01*
X93504Y51402D01*
X93474Y51303D01*
X93474Y51283D01*
X93469Y51264D01*
X93477Y51161D01*
X93480Y51058D01*
X93487Y51039D01*
X93488Y51019D01*
X93520Y50945D01*
X93520Y46568D01*
X92627Y45675D01*
X76613Y45675D01*
X75903Y46385D01*
X75829Y46438D01*
X75760Y46498D01*
X75730Y46510D01*
X75704Y46529D01*
X75617Y46556D01*
X75532Y46590D01*
X75491Y46594D01*
X75469Y46601D01*
X75436Y46600D01*
X75365Y46608D01*
X70485Y46608D01*
X70465Y46605D01*
X70446Y46607D01*
X70344Y46585D01*
X70242Y46569D01*
X70225Y46559D01*
X70205Y46555D01*
X70116Y46502D01*
X70025Y46453D01*
X70011Y46439D01*
X69994Y46429D01*
X69927Y46350D01*
X69855Y46275D01*
X69847Y46257D01*
X69834Y46242D01*
X69795Y46146D01*
X69752Y46052D01*
X69750Y46032D01*
X69742Y46014D01*
X69724Y45847D01*
X69724Y36503D01*
X69738Y36413D01*
X69746Y36322D01*
X69758Y36292D01*
X69763Y36260D01*
X69806Y36180D01*
X69842Y36096D01*
X69868Y36064D01*
X69879Y36043D01*
X69902Y36021D01*
X69947Y35965D01*
X77240Y28672D01*
X77314Y28619D01*
X77383Y28559D01*
X77413Y28547D01*
X77440Y28528D01*
X77527Y28501D01*
X77611Y28467D01*
X77652Y28463D01*
X77675Y28456D01*
X77707Y28457D01*
X77778Y28449D01*
X95690Y28449D01*
X95710Y28452D01*
X95729Y28450D01*
X95831Y28472D01*
X95933Y28488D01*
X95950Y28498D01*
X95970Y28502D01*
X96059Y28555D01*
X96150Y28604D01*
X96164Y28618D01*
X96181Y28628D01*
X96248Y28707D01*
X96320Y28782D01*
X96328Y28800D01*
X96341Y28815D01*
X96380Y28911D01*
X96423Y29005D01*
X96425Y29025D01*
X96433Y29043D01*
X96451Y29210D01*
X96451Y35242D01*
X96457Y35255D01*
X96461Y35296D01*
X96468Y35318D01*
X96467Y35350D01*
X96475Y35422D01*
X96475Y41827D01*
X97368Y42720D01*
X101632Y42720D01*
X102525Y41827D01*
X102525Y35422D01*
X102540Y35332D01*
X102547Y35241D01*
X102549Y35236D01*
X102549Y25553D01*
X102563Y25463D01*
X102571Y25372D01*
X102583Y25342D01*
X102588Y25310D01*
X102631Y25230D01*
X102667Y25146D01*
X102693Y25114D01*
X102704Y25093D01*
X102727Y25071D01*
X102772Y25015D01*
X106464Y21323D01*
X106538Y21270D01*
X106607Y21210D01*
X106637Y21198D01*
X106664Y21179D01*
X106751Y21152D01*
X106835Y21118D01*
X106876Y21114D01*
X106899Y21107D01*
X106931Y21108D01*
X107002Y21100D01*
X109682Y21100D01*
X110575Y20207D01*
X110575Y19685D01*
X110578Y19665D01*
X110576Y19646D01*
X110598Y19544D01*
X110614Y19442D01*
X110624Y19425D01*
X110628Y19405D01*
X110681Y19316D01*
X110730Y19225D01*
X110744Y19211D01*
X110754Y19194D01*
X110833Y19127D01*
X110908Y19055D01*
X110926Y19047D01*
X110941Y19034D01*
X111037Y18995D01*
X111131Y18952D01*
X111151Y18950D01*
X111169Y18942D01*
X111336Y18924D01*
X169872Y18924D01*
X169962Y18938D01*
X170053Y18946D01*
X170083Y18958D01*
X170115Y18963D01*
X170195Y19006D01*
X170279Y19042D01*
X170311Y19068D01*
X170332Y19079D01*
X170354Y19102D01*
X170410Y19147D01*
X184403Y33140D01*
X184456Y33214D01*
X184516Y33283D01*
X184528Y33313D01*
X184547Y33340D01*
X184574Y33427D01*
X184608Y33511D01*
X184612Y33552D01*
X184619Y33575D01*
X184618Y33607D01*
X184626Y33678D01*
X184626Y59890D01*
X184623Y59910D01*
X184625Y59929D01*
X184603Y60031D01*
X184587Y60133D01*
X184577Y60150D01*
X184573Y60170D01*
X184520Y60259D01*
X184471Y60350D01*
X184457Y60364D01*
X184447Y60381D01*
X184368Y60448D01*
X184293Y60520D01*
X184275Y60528D01*
X184260Y60541D01*
X184164Y60580D01*
X184070Y60623D01*
X184050Y60625D01*
X184032Y60633D01*
X183865Y60651D01*
X179041Y60651D01*
X179021Y60648D01*
X179002Y60650D01*
X178900Y60628D01*
X178798Y60612D01*
X178781Y60602D01*
X178761Y60598D01*
X178672Y60545D01*
X178581Y60496D01*
X178567Y60482D01*
X178550Y60472D01*
X178483Y60393D01*
X178411Y60318D01*
X178403Y60300D01*
X178390Y60285D01*
X178351Y60189D01*
X178308Y60095D01*
X178306Y60075D01*
X178298Y60057D01*
X178280Y59890D01*
X178280Y56464D01*
X178264Y56402D01*
X178234Y56304D01*
X178234Y56284D01*
X178229Y56264D01*
X178237Y56161D01*
X178240Y56058D01*
X178247Y56039D01*
X178248Y56019D01*
X178280Y55946D01*
X178280Y51464D01*
X178264Y51402D01*
X178234Y51304D01*
X178234Y51284D01*
X178229Y51264D01*
X178237Y51161D01*
X178240Y51058D01*
X178247Y51039D01*
X178248Y51019D01*
X178280Y50946D01*
X178280Y46568D01*
X177387Y45675D01*
X161373Y45675D01*
X160480Y46568D01*
X160480Y50936D01*
X160496Y50998D01*
X160526Y51097D01*
X160526Y51117D01*
X160531Y51136D01*
X160523Y51239D01*
X160520Y51342D01*
X160513Y51361D01*
X160512Y51381D01*
X160480Y51455D01*
X160480Y55936D01*
X160496Y55998D01*
X160526Y56097D01*
X160526Y56117D01*
X160531Y56136D01*
X160523Y56239D01*
X160520Y56342D01*
X160513Y56361D01*
X160512Y56381D01*
X160480Y56455D01*
X160480Y60936D01*
X160496Y60998D01*
X160526Y61097D01*
X160526Y61117D01*
X160531Y61136D01*
X160523Y61239D01*
X160520Y61342D01*
X160513Y61361D01*
X160512Y61381D01*
X160480Y61455D01*
X160480Y65832D01*
X161373Y66725D01*
X167778Y66725D01*
X167868Y66740D01*
X167959Y66747D01*
X167964Y66749D01*
X176022Y66749D01*
X176042Y66752D01*
X176061Y66750D01*
X176163Y66772D01*
X176265Y66788D01*
X176282Y66798D01*
X176302Y66802D01*
X176391Y66855D01*
X176482Y66904D01*
X176496Y66918D01*
X176513Y66928D01*
X176580Y67007D01*
X176652Y67082D01*
X176660Y67100D01*
X176673Y67115D01*
X176712Y67211D01*
X176755Y67305D01*
X176757Y67325D01*
X176765Y67343D01*
X176783Y67510D01*
X176783Y69914D01*
X176780Y69934D01*
X176782Y69953D01*
X176760Y70055D01*
X176744Y70157D01*
X176734Y70174D01*
X176730Y70194D01*
X176677Y70283D01*
X176628Y70374D01*
X176614Y70388D01*
X176604Y70405D01*
X176525Y70472D01*
X176450Y70544D01*
X176432Y70552D01*
X176417Y70565D01*
X176321Y70604D01*
X176227Y70647D01*
X176207Y70649D01*
X176189Y70657D01*
X176022Y70675D01*
X161373Y70675D01*
X161112Y70936D01*
X161038Y70990D01*
X160969Y71049D01*
X160939Y71061D01*
X160913Y71080D01*
X160826Y71107D01*
X160741Y71141D01*
X160700Y71145D01*
X160678Y71152D01*
X160645Y71151D01*
X160574Y71159D01*
X144323Y71159D01*
X144078Y71404D01*
X144004Y71457D01*
X143934Y71517D01*
X143904Y71529D01*
X143878Y71548D01*
X143791Y71575D01*
X143706Y71609D01*
X143665Y71613D01*
X143643Y71620D01*
X143611Y71619D01*
X143539Y71627D01*
X140981Y71627D01*
X138302Y74306D01*
X138302Y78094D01*
X140981Y80773D01*
X144769Y80773D01*
X147448Y78094D01*
X147448Y77002D01*
X147451Y76982D01*
X147449Y76963D01*
X147471Y76861D01*
X147487Y76759D01*
X147497Y76742D01*
X147501Y76722D01*
X147554Y76633D01*
X147603Y76542D01*
X147617Y76528D01*
X147627Y76511D01*
X147706Y76444D01*
X147781Y76372D01*
X147799Y76364D01*
X147814Y76351D01*
X147910Y76312D01*
X148004Y76269D01*
X148024Y76267D01*
X148042Y76259D01*
X148209Y76241D01*
X159719Y76241D01*
X159739Y76244D01*
X159758Y76242D01*
X159860Y76264D01*
X159962Y76280D01*
X159979Y76290D01*
X159999Y76294D01*
X160088Y76347D01*
X160179Y76396D01*
X160193Y76410D01*
X160210Y76420D01*
X160277Y76499D01*
X160349Y76574D01*
X160357Y76592D01*
X160370Y76607D01*
X160409Y76703D01*
X160452Y76797D01*
X160454Y76817D01*
X160462Y76835D01*
X160480Y77002D01*
X160480Y80936D01*
X160496Y80998D01*
X160526Y81097D01*
X160526Y81117D01*
X160531Y81136D01*
X160523Y81239D01*
X160520Y81342D01*
X160513Y81361D01*
X160512Y81381D01*
X160480Y81455D01*
X160480Y85936D01*
X160496Y85998D01*
X160526Y86097D01*
X160526Y86117D01*
X160531Y86136D01*
X160523Y86239D01*
X160520Y86342D01*
X160513Y86361D01*
X160512Y86381D01*
X160480Y86455D01*
X160480Y90936D01*
X160496Y90998D01*
X160526Y91097D01*
X160526Y91117D01*
X160531Y91136D01*
X160523Y91239D01*
X160520Y91342D01*
X160513Y91361D01*
X160512Y91381D01*
X160480Y91455D01*
X160480Y95936D01*
X160496Y95998D01*
X160526Y96097D01*
X160526Y96117D01*
X160531Y96136D01*
X160523Y96239D01*
X160520Y96342D01*
X160513Y96361D01*
X160512Y96381D01*
X160480Y96455D01*
X160480Y98078D01*
X160469Y98149D01*
X160467Y98221D01*
X160449Y98270D01*
X160441Y98321D01*
X160407Y98384D01*
X160382Y98452D01*
X160350Y98492D01*
X160325Y98538D01*
X160274Y98588D01*
X160229Y98644D01*
X160185Y98672D01*
X160147Y98708D01*
X160082Y98738D01*
X160022Y98777D01*
X159971Y98789D01*
X159924Y98811D01*
X159853Y98819D01*
X159783Y98837D01*
X159731Y98833D01*
X159680Y98838D01*
X159609Y98823D01*
X159538Y98818D01*
X159490Y98797D01*
X159439Y98786D01*
X159378Y98749D01*
X159312Y98721D01*
X159256Y98676D01*
X159228Y98660D01*
X159213Y98642D01*
X159181Y98616D01*
X159057Y98492D01*
X155268Y98492D01*
X152590Y101171D01*
X152590Y104959D01*
X155268Y107638D01*
X159057Y107638D01*
X160133Y106561D01*
X160149Y106549D01*
X160162Y106534D01*
X160249Y106478D01*
X160333Y106418D01*
X160352Y106412D01*
X160369Y106401D01*
X160469Y106376D01*
X160568Y106345D01*
X160588Y106346D01*
X160607Y106341D01*
X160710Y106349D01*
X160814Y106352D01*
X160833Y106358D01*
X160853Y106360D01*
X160948Y106400D01*
X161045Y106436D01*
X161061Y106448D01*
X161079Y106456D01*
X161210Y106561D01*
X161373Y106725D01*
X177387Y106725D01*
X178280Y105832D01*
X178280Y102002D01*
X178283Y101982D01*
X178281Y101963D01*
X178303Y101861D01*
X178319Y101759D01*
X178329Y101742D01*
X178333Y101722D01*
X178386Y101633D01*
X178435Y101542D01*
X178449Y101528D01*
X178459Y101511D01*
X178538Y101444D01*
X178613Y101372D01*
X178631Y101364D01*
X178646Y101351D01*
X178742Y101312D01*
X178836Y101269D01*
X178856Y101267D01*
X178874Y101259D01*
X179041Y101241D01*
X179882Y101241D01*
X179972Y101255D01*
X180063Y101263D01*
X180093Y101275D01*
X180125Y101280D01*
X180206Y101323D01*
X180290Y101359D01*
X180322Y101385D01*
X180342Y101396D01*
X180365Y101419D01*
X180421Y101464D01*
X198973Y120016D01*
X200152Y120016D01*
X200172Y120019D01*
X200191Y120017D01*
X200293Y120039D01*
X200395Y120055D01*
X200412Y120065D01*
X200432Y120069D01*
X200521Y120122D01*
X200612Y120171D01*
X200626Y120185D01*
X200643Y120195D01*
X200710Y120274D01*
X200782Y120349D01*
X200790Y120367D01*
X200803Y120382D01*
X200842Y120478D01*
X200885Y120572D01*
X200887Y120592D01*
X200895Y120610D01*
X200913Y120777D01*
X200913Y126108D01*
X201806Y127001D01*
X214754Y127001D01*
X215647Y126108D01*
X215647Y108842D01*
X214754Y107949D01*
X201806Y107949D01*
X200913Y108842D01*
X200913Y112932D01*
X200911Y112949D01*
X200912Y112964D01*
X200901Y113014D01*
X200900Y113075D01*
X200882Y113124D01*
X200874Y113175D01*
X200862Y113198D01*
X200860Y113205D01*
X200841Y113237D01*
X200840Y113238D01*
X200815Y113306D01*
X200783Y113347D01*
X200758Y113392D01*
X200734Y113416D01*
X200733Y113417D01*
X200707Y113442D01*
X200662Y113498D01*
X200618Y113526D01*
X200580Y113562D01*
X200515Y113592D01*
X200455Y113631D01*
X200404Y113644D01*
X200357Y113665D01*
X200286Y113673D01*
X200216Y113691D01*
X200164Y113687D01*
X200113Y113693D01*
X200042Y113677D01*
X199971Y113672D01*
X199923Y113651D01*
X199872Y113640D01*
X199811Y113603D01*
X199745Y113575D01*
X199700Y113540D01*
X199685Y113531D01*
X199677Y113524D01*
X199661Y113514D01*
X199646Y113496D01*
X199614Y113471D01*
X183683Y97540D01*
X183642Y97482D01*
X183592Y97430D01*
X183570Y97383D01*
X183540Y97341D01*
X183519Y97272D01*
X183489Y97207D01*
X183483Y97155D01*
X183467Y97105D01*
X183469Y97034D01*
X183461Y96963D01*
X183473Y96912D01*
X183474Y96860D01*
X183498Y96792D01*
X183514Y96722D01*
X183540Y96678D01*
X183558Y96629D01*
X183603Y96573D01*
X183640Y96511D01*
X183679Y96477D01*
X183712Y96437D01*
X183772Y96398D01*
X183827Y96351D01*
X183875Y96332D01*
X183919Y96304D01*
X183988Y96286D01*
X184055Y96259D01*
X184126Y96251D01*
X184157Y96243D01*
X184181Y96245D01*
X184222Y96241D01*
X200152Y96241D01*
X200172Y96244D01*
X200191Y96242D01*
X200293Y96264D01*
X200395Y96280D01*
X200412Y96290D01*
X200432Y96294D01*
X200521Y96347D01*
X200612Y96396D01*
X200626Y96410D01*
X200643Y96420D01*
X200710Y96499D01*
X200782Y96574D01*
X200790Y96592D01*
X200803Y96607D01*
X200842Y96703D01*
X200885Y96797D01*
X200887Y96817D01*
X200895Y96835D01*
X200913Y97002D01*
X200913Y103883D01*
X201806Y104776D01*
X214754Y104776D01*
X215647Y103883D01*
X215647Y86617D01*
X214754Y85724D01*
X201777Y85724D01*
X201687Y85710D01*
X201596Y85702D01*
X201567Y85690D01*
X201535Y85685D01*
X201454Y85642D01*
X201370Y85606D01*
X201338Y85580D01*
X201317Y85569D01*
X201295Y85546D01*
X201239Y85501D01*
X200446Y84708D01*
X196429Y84708D01*
X196174Y84963D01*
X196116Y85005D01*
X196064Y85054D01*
X196017Y85076D01*
X195975Y85106D01*
X195906Y85127D01*
X195841Y85158D01*
X195789Y85163D01*
X195739Y85179D01*
X195668Y85177D01*
X195597Y85185D01*
X195546Y85174D01*
X195494Y85172D01*
X195426Y85148D01*
X195356Y85133D01*
X195311Y85106D01*
X195263Y85088D01*
X195207Y85043D01*
X195145Y85006D01*
X195111Y84967D01*
X195071Y84934D01*
X195032Y84874D01*
X194985Y84819D01*
X194966Y84771D01*
X194938Y84727D01*
X194920Y84658D01*
X194893Y84591D01*
X194885Y84520D01*
X194877Y84489D01*
X194879Y84466D01*
X194875Y84425D01*
X194875Y73343D01*
X193906Y72374D01*
X193845Y72352D01*
X193805Y72320D01*
X193759Y72295D01*
X193709Y72244D01*
X193653Y72199D01*
X193625Y72155D01*
X193589Y72117D01*
X193559Y72052D01*
X193520Y71992D01*
X193508Y71941D01*
X193486Y71894D01*
X193478Y71823D01*
X193460Y71753D01*
X193464Y71701D01*
X193459Y71650D01*
X193474Y71579D01*
X193479Y71508D01*
X193500Y71460D01*
X193511Y71409D01*
X193548Y71348D01*
X193576Y71282D01*
X193621Y71226D01*
X193637Y71198D01*
X193655Y71183D01*
X193681Y71151D01*
X193825Y71007D01*
X193825Y62343D01*
X192932Y61450D01*
X191485Y61450D01*
X191465Y61447D01*
X191446Y61449D01*
X191344Y61427D01*
X191242Y61411D01*
X191225Y61401D01*
X191205Y61397D01*
X191116Y61344D01*
X191025Y61295D01*
X191011Y61281D01*
X190994Y61271D01*
X190927Y61192D01*
X190855Y61117D01*
X190847Y61099D01*
X190834Y61084D01*
X190795Y60988D01*
X190752Y60894D01*
X190750Y60874D01*
X190742Y60856D01*
X190724Y60689D01*
X190724Y30837D01*
X172713Y12826D01*
X111336Y12826D01*
X111316Y12823D01*
X111297Y12825D01*
X111195Y12803D01*
X111093Y12787D01*
X111076Y12777D01*
X111056Y12773D01*
X110967Y12720D01*
X110876Y12671D01*
X110862Y12657D01*
X110845Y12647D01*
X110778Y12568D01*
X110706Y12493D01*
X110698Y12475D01*
X110685Y12460D01*
X110646Y12364D01*
X110603Y12270D01*
X110601Y12250D01*
X110593Y12232D01*
X110575Y12065D01*
X110575Y11543D01*
X109682Y10650D01*
X99168Y10650D01*
G37*
%LPD*%
%LPC*%
G36*
X52081Y90677D02*
X52081Y90677D01*
X49402Y93356D01*
X49402Y95914D01*
X49388Y96004D01*
X49380Y96095D01*
X49368Y96125D01*
X49363Y96157D01*
X49320Y96238D01*
X49284Y96322D01*
X49258Y96354D01*
X49247Y96374D01*
X49224Y96397D01*
X49179Y96453D01*
X38734Y106898D01*
X38734Y160605D01*
X38723Y160675D01*
X38721Y160747D01*
X38703Y160796D01*
X38695Y160847D01*
X38661Y160911D01*
X38636Y160978D01*
X38604Y161019D01*
X38579Y161065D01*
X38527Y161114D01*
X38483Y161170D01*
X38439Y161198D01*
X38401Y161234D01*
X38336Y161264D01*
X38276Y161303D01*
X38225Y161316D01*
X38178Y161338D01*
X38107Y161346D01*
X38037Y161363D01*
X37985Y161359D01*
X37934Y161365D01*
X37863Y161350D01*
X37792Y161344D01*
X37744Y161324D01*
X37693Y161313D01*
X37632Y161276D01*
X37566Y161248D01*
X37510Y161203D01*
X37482Y161186D01*
X37467Y161169D01*
X37435Y161143D01*
X36819Y160527D01*
X33031Y160527D01*
X30352Y163206D01*
X30352Y166994D01*
X32161Y168803D01*
X32214Y168877D01*
X32274Y168947D01*
X32286Y168977D01*
X32305Y169003D01*
X32332Y169090D01*
X32366Y169175D01*
X32370Y169216D01*
X32377Y169238D01*
X32376Y169270D01*
X32384Y169341D01*
X32384Y182027D01*
X41173Y190816D01*
X44414Y190816D01*
X44434Y190819D01*
X44453Y190817D01*
X44555Y190839D01*
X44657Y190855D01*
X44674Y190865D01*
X44694Y190869D01*
X44783Y190922D01*
X44874Y190971D01*
X44888Y190985D01*
X44905Y190995D01*
X44972Y191074D01*
X45044Y191149D01*
X45052Y191167D01*
X45065Y191182D01*
X45104Y191278D01*
X45147Y191372D01*
X45149Y191392D01*
X45157Y191410D01*
X45175Y191577D01*
X45175Y191907D01*
X46068Y192800D01*
X62832Y192800D01*
X63725Y191907D01*
X63725Y191577D01*
X63728Y191557D01*
X63726Y191538D01*
X63748Y191436D01*
X63764Y191334D01*
X63774Y191317D01*
X63778Y191297D01*
X63831Y191208D01*
X63880Y191117D01*
X63894Y191103D01*
X63904Y191086D01*
X63983Y191019D01*
X64058Y190947D01*
X64076Y190939D01*
X64091Y190926D01*
X64187Y190887D01*
X64281Y190844D01*
X64301Y190842D01*
X64319Y190834D01*
X64486Y190816D01*
X68482Y190816D01*
X68572Y190830D01*
X68663Y190838D01*
X68693Y190850D01*
X68725Y190855D01*
X68806Y190898D01*
X68890Y190934D01*
X68922Y190960D01*
X68942Y190971D01*
X68965Y190994D01*
X69021Y191039D01*
X69977Y191995D01*
X70030Y192069D01*
X70090Y192139D01*
X70102Y192169D01*
X70121Y192195D01*
X70148Y192282D01*
X70182Y192367D01*
X70186Y192408D01*
X70193Y192430D01*
X70192Y192462D01*
X70200Y192534D01*
X70200Y198941D01*
X70194Y198981D01*
X70194Y198986D01*
X70189Y199009D01*
X70186Y199031D01*
X70178Y199122D01*
X70166Y199152D01*
X70161Y199184D01*
X70145Y199214D01*
X70142Y199226D01*
X70115Y199271D01*
X70082Y199349D01*
X70056Y199381D01*
X70045Y199401D01*
X70026Y199420D01*
X70016Y199437D01*
X70001Y199450D01*
X69977Y199480D01*
X60499Y208958D01*
X60441Y208999D01*
X60389Y209049D01*
X60342Y209071D01*
X60300Y209101D01*
X60231Y209122D01*
X60166Y209152D01*
X60114Y209158D01*
X60064Y209174D01*
X59993Y209172D01*
X59922Y209180D01*
X59871Y209168D01*
X59819Y209167D01*
X59751Y209143D01*
X59681Y209127D01*
X59636Y209101D01*
X59588Y209083D01*
X59532Y209038D01*
X59470Y209001D01*
X59436Y208962D01*
X59396Y208929D01*
X59357Y208869D01*
X59310Y208814D01*
X59291Y208766D01*
X59263Y208722D01*
X59245Y208653D01*
X59218Y208586D01*
X59210Y208515D01*
X59202Y208484D01*
X59204Y208460D01*
X59200Y208419D01*
X59200Y207818D01*
X58307Y206925D01*
X49643Y206925D01*
X48750Y207818D01*
X48750Y218332D01*
X49643Y219225D01*
X58307Y219225D01*
X59200Y218332D01*
X59200Y216377D01*
X59203Y216357D01*
X59201Y216338D01*
X59223Y216236D01*
X59239Y216134D01*
X59249Y216117D01*
X59253Y216097D01*
X59306Y216008D01*
X59355Y215917D01*
X59369Y215903D01*
X59379Y215886D01*
X59458Y215819D01*
X59533Y215747D01*
X59551Y215739D01*
X59566Y215726D01*
X59662Y215687D01*
X59756Y215644D01*
X59776Y215642D01*
X59794Y215634D01*
X59961Y215616D01*
X61027Y215616D01*
X74495Y202148D01*
X74569Y202095D01*
X74639Y202035D01*
X74669Y202023D01*
X74695Y202004D01*
X74782Y201977D01*
X74867Y201943D01*
X74908Y201939D01*
X74930Y201932D01*
X74962Y201933D01*
X75034Y201925D01*
X78857Y201925D01*
X79750Y201032D01*
X79750Y189268D01*
X78857Y188375D01*
X73859Y188375D01*
X73769Y188361D01*
X73678Y188353D01*
X73648Y188341D01*
X73616Y188336D01*
X73535Y188293D01*
X73451Y188257D01*
X73419Y188231D01*
X73399Y188220D01*
X73376Y188197D01*
X73320Y188152D01*
X70902Y185734D01*
X64486Y185734D01*
X64466Y185731D01*
X64447Y185733D01*
X64345Y185711D01*
X64243Y185695D01*
X64226Y185685D01*
X64206Y185681D01*
X64117Y185628D01*
X64026Y185579D01*
X64012Y185565D01*
X63995Y185555D01*
X63928Y185476D01*
X63856Y185401D01*
X63848Y185383D01*
X63835Y185368D01*
X63796Y185272D01*
X63753Y185178D01*
X63751Y185158D01*
X63743Y185140D01*
X63725Y184973D01*
X63725Y184643D01*
X62895Y183813D01*
X62883Y183797D01*
X62867Y183785D01*
X62811Y183697D01*
X62751Y183614D01*
X62745Y183595D01*
X62734Y183578D01*
X62709Y183477D01*
X62679Y183378D01*
X62679Y183359D01*
X62674Y183339D01*
X62682Y183236D01*
X62685Y183133D01*
X62692Y183114D01*
X62693Y183094D01*
X62734Y182999D01*
X62769Y182902D01*
X62782Y182886D01*
X62790Y182868D01*
X62895Y182737D01*
X63725Y181907D01*
X63725Y174643D01*
X62832Y173750D01*
X46068Y173750D01*
X45569Y174250D01*
X45553Y174261D01*
X45541Y174277D01*
X45453Y174333D01*
X45369Y174393D01*
X45350Y174399D01*
X45334Y174410D01*
X45233Y174435D01*
X45134Y174465D01*
X45114Y174465D01*
X45095Y174470D01*
X44992Y174462D01*
X44889Y174459D01*
X44870Y174452D01*
X44850Y174451D01*
X44755Y174410D01*
X44657Y174375D01*
X44642Y174362D01*
X44624Y174354D01*
X44493Y174250D01*
X44039Y173796D01*
X43985Y173721D01*
X43926Y173652D01*
X43914Y173622D01*
X43895Y173596D01*
X43868Y173509D01*
X43834Y173424D01*
X43830Y173383D01*
X43823Y173361D01*
X43824Y173329D01*
X43816Y173257D01*
X43816Y162385D01*
X43818Y162374D01*
X43817Y162367D01*
X43825Y162331D01*
X43827Y162314D01*
X43829Y162242D01*
X43847Y162193D01*
X43855Y162142D01*
X43889Y162079D01*
X43914Y162011D01*
X43946Y161971D01*
X43971Y161925D01*
X44023Y161875D01*
X44067Y161819D01*
X44111Y161791D01*
X44149Y161755D01*
X44214Y161725D01*
X44274Y161686D01*
X44325Y161674D01*
X44372Y161652D01*
X44443Y161644D01*
X44513Y161626D01*
X44565Y161630D01*
X44616Y161625D01*
X44687Y161640D01*
X44758Y161645D01*
X44806Y161666D01*
X44857Y161677D01*
X44918Y161714D01*
X44984Y161742D01*
X45040Y161787D01*
X45068Y161803D01*
X45083Y161821D01*
X45115Y161847D01*
X46068Y162800D01*
X62832Y162800D01*
X63725Y161907D01*
X63725Y161577D01*
X63728Y161557D01*
X63726Y161538D01*
X63748Y161436D01*
X63764Y161334D01*
X63774Y161317D01*
X63778Y161297D01*
X63831Y161208D01*
X63880Y161117D01*
X63894Y161103D01*
X63904Y161086D01*
X63983Y161019D01*
X64058Y160947D01*
X64076Y160939D01*
X64091Y160926D01*
X64187Y160887D01*
X64281Y160844D01*
X64301Y160842D01*
X64319Y160834D01*
X64486Y160816D01*
X74552Y160816D01*
X102078Y133290D01*
X102136Y133249D01*
X102188Y133199D01*
X102235Y133177D01*
X102277Y133147D01*
X102346Y133126D01*
X102411Y133096D01*
X102463Y133090D01*
X102513Y133074D01*
X102584Y133076D01*
X102655Y133068D01*
X102706Y133080D01*
X102758Y133081D01*
X102826Y133105D01*
X102896Y133121D01*
X102941Y133147D01*
X102989Y133165D01*
X103045Y133210D01*
X103107Y133247D01*
X103141Y133286D01*
X103181Y133319D01*
X103220Y133379D01*
X103267Y133434D01*
X103286Y133482D01*
X103314Y133526D01*
X103332Y133595D01*
X103359Y133662D01*
X103367Y133733D01*
X103375Y133764D01*
X103373Y133788D01*
X103377Y133829D01*
X103377Y135244D01*
X106056Y137923D01*
X109844Y137923D01*
X111071Y136696D01*
X111087Y136684D01*
X111100Y136669D01*
X111187Y136613D01*
X111271Y136552D01*
X111290Y136546D01*
X111307Y136536D01*
X111407Y136510D01*
X111506Y136480D01*
X111526Y136480D01*
X111545Y136476D01*
X111648Y136484D01*
X111752Y136486D01*
X111771Y136493D01*
X111790Y136495D01*
X111885Y136535D01*
X111983Y136571D01*
X111998Y136583D01*
X112017Y136591D01*
X112148Y136696D01*
X119029Y143577D01*
X119082Y143651D01*
X119142Y143721D01*
X119154Y143751D01*
X119173Y143777D01*
X119200Y143864D01*
X119234Y143949D01*
X119238Y143990D01*
X119245Y144012D01*
X119244Y144044D01*
X119252Y144116D01*
X119252Y147944D01*
X121931Y150623D01*
X125719Y150623D01*
X128398Y147944D01*
X128398Y144156D01*
X125719Y141477D01*
X124431Y141477D01*
X124341Y141463D01*
X124250Y141455D01*
X124220Y141443D01*
X124188Y141438D01*
X124107Y141395D01*
X124023Y141359D01*
X123991Y141333D01*
X123971Y141322D01*
X123948Y141299D01*
X123892Y141254D01*
X121860Y139222D01*
X121819Y139164D01*
X121769Y139112D01*
X121747Y139065D01*
X121717Y139023D01*
X121696Y138954D01*
X121666Y138889D01*
X121660Y138837D01*
X121644Y138787D01*
X121646Y138716D01*
X121638Y138645D01*
X121650Y138594D01*
X121651Y138542D01*
X121675Y138474D01*
X121691Y138404D01*
X121717Y138359D01*
X121735Y138311D01*
X121780Y138255D01*
X121817Y138193D01*
X121856Y138159D01*
X121889Y138119D01*
X121949Y138080D01*
X122004Y138033D01*
X122052Y138014D01*
X122096Y137986D01*
X122165Y137968D01*
X122232Y137941D01*
X122303Y137933D01*
X122334Y137925D01*
X122358Y137927D01*
X122399Y137923D01*
X122544Y137923D01*
X125223Y135244D01*
X125223Y131456D01*
X122546Y128779D01*
X122504Y128721D01*
X122455Y128669D01*
X122433Y128622D01*
X122403Y128580D01*
X122381Y128511D01*
X122351Y128446D01*
X122346Y128394D01*
X122330Y128344D01*
X122332Y128273D01*
X122324Y128202D01*
X122335Y128151D01*
X122337Y128099D01*
X122361Y128031D01*
X122376Y127961D01*
X122403Y127916D01*
X122421Y127868D01*
X122466Y127812D01*
X122503Y127750D01*
X122542Y127716D01*
X122575Y127676D01*
X122635Y127637D01*
X122689Y127590D01*
X122738Y127571D01*
X122782Y127543D01*
X122851Y127525D01*
X122918Y127498D01*
X122989Y127490D01*
X123020Y127482D01*
X123043Y127484D01*
X123084Y127480D01*
X126736Y127480D01*
X126798Y127464D01*
X126896Y127434D01*
X126916Y127434D01*
X126936Y127429D01*
X127039Y127437D01*
X127142Y127440D01*
X127161Y127447D01*
X127181Y127448D01*
X127254Y127480D01*
X131198Y127480D01*
X131218Y127483D01*
X131237Y127481D01*
X131339Y127503D01*
X131441Y127519D01*
X131458Y127529D01*
X131478Y127533D01*
X131567Y127586D01*
X131658Y127635D01*
X131672Y127649D01*
X131689Y127659D01*
X131756Y127738D01*
X131828Y127813D01*
X131836Y127831D01*
X131849Y127846D01*
X131888Y127942D01*
X131931Y128036D01*
X131933Y128056D01*
X131941Y128074D01*
X131959Y128241D01*
X131959Y136644D01*
X131945Y136734D01*
X131937Y136825D01*
X131925Y136855D01*
X131920Y136887D01*
X131877Y136968D01*
X131841Y137051D01*
X131815Y137084D01*
X131804Y137104D01*
X131781Y137126D01*
X131736Y137182D01*
X131500Y137418D01*
X131500Y144682D01*
X132393Y145575D01*
X140657Y145575D01*
X141550Y144682D01*
X141550Y137456D01*
X141561Y137385D01*
X141563Y137313D01*
X141581Y137264D01*
X141589Y137213D01*
X141623Y137150D01*
X141648Y137082D01*
X141680Y137042D01*
X141705Y136996D01*
X141757Y136946D01*
X141801Y136890D01*
X141845Y136862D01*
X141883Y136826D01*
X141948Y136796D01*
X142008Y136757D01*
X142059Y136744D01*
X142106Y136723D01*
X142177Y136715D01*
X142247Y136697D01*
X142299Y136701D01*
X142350Y136695D01*
X142421Y136711D01*
X142492Y136716D01*
X142540Y136737D01*
X142591Y136748D01*
X142652Y136785D01*
X142718Y136813D01*
X142774Y136857D01*
X142802Y136874D01*
X142817Y136892D01*
X142849Y136917D01*
X170398Y164466D01*
X200152Y164466D01*
X200172Y164469D01*
X200191Y164467D01*
X200293Y164489D01*
X200395Y164505D01*
X200412Y164515D01*
X200432Y164519D01*
X200521Y164572D01*
X200612Y164621D01*
X200626Y164635D01*
X200643Y164645D01*
X200710Y164724D01*
X200782Y164799D01*
X200790Y164817D01*
X200803Y164832D01*
X200842Y164928D01*
X200885Y165022D01*
X200887Y165042D01*
X200895Y165060D01*
X200913Y165227D01*
X200913Y170558D01*
X201806Y171451D01*
X214754Y171451D01*
X215647Y170558D01*
X215647Y153292D01*
X214754Y152399D01*
X201806Y152399D01*
X200913Y153292D01*
X200913Y158623D01*
X200912Y158633D01*
X200912Y158639D01*
X200911Y158647D01*
X200912Y158662D01*
X200890Y158764D01*
X200874Y158866D01*
X200864Y158883D01*
X200860Y158903D01*
X200807Y158992D01*
X200758Y159083D01*
X200744Y159097D01*
X200734Y159114D01*
X200655Y159181D01*
X200580Y159253D01*
X200562Y159261D01*
X200547Y159274D01*
X200451Y159313D01*
X200357Y159356D01*
X200337Y159358D01*
X200319Y159366D01*
X200152Y159384D01*
X172818Y159384D01*
X172728Y159370D01*
X172637Y159362D01*
X172607Y159350D01*
X172575Y159345D01*
X172494Y159302D01*
X172410Y159266D01*
X172378Y159240D01*
X172358Y159229D01*
X172337Y159208D01*
X172335Y159206D01*
X172330Y159202D01*
X172279Y159161D01*
X156658Y143540D01*
X156617Y143482D01*
X156567Y143430D01*
X156545Y143383D01*
X156515Y143341D01*
X156494Y143272D01*
X156464Y143207D01*
X156458Y143155D01*
X156442Y143105D01*
X156444Y143034D01*
X156436Y142963D01*
X156448Y142912D01*
X156449Y142860D01*
X156473Y142792D01*
X156489Y142722D01*
X156515Y142677D01*
X156533Y142629D01*
X156578Y142573D01*
X156615Y142511D01*
X156654Y142477D01*
X156687Y142437D01*
X156747Y142398D01*
X156802Y142351D01*
X156850Y142332D01*
X156894Y142304D01*
X156963Y142286D01*
X157030Y142259D01*
X157101Y142251D01*
X157132Y142243D01*
X157156Y142245D01*
X157197Y142241D01*
X200152Y142241D01*
X200172Y142244D01*
X200191Y142242D01*
X200293Y142264D01*
X200395Y142280D01*
X200412Y142290D01*
X200432Y142294D01*
X200521Y142347D01*
X200612Y142396D01*
X200626Y142410D01*
X200643Y142420D01*
X200710Y142499D01*
X200782Y142574D01*
X200790Y142592D01*
X200803Y142607D01*
X200842Y142703D01*
X200885Y142797D01*
X200887Y142817D01*
X200895Y142835D01*
X200913Y143002D01*
X200913Y148333D01*
X201806Y149226D01*
X214754Y149226D01*
X215647Y148333D01*
X215647Y131067D01*
X214754Y130174D01*
X201806Y130174D01*
X200913Y131067D01*
X200913Y136398D01*
X200910Y136418D01*
X200912Y136437D01*
X200890Y136539D01*
X200874Y136641D01*
X200864Y136658D01*
X200860Y136678D01*
X200807Y136767D01*
X200758Y136858D01*
X200744Y136872D01*
X200734Y136889D01*
X200655Y136956D01*
X200580Y137028D01*
X200562Y137036D01*
X200547Y137049D01*
X200451Y137088D01*
X200357Y137131D01*
X200337Y137133D01*
X200319Y137141D01*
X200152Y137159D01*
X191680Y137159D01*
X191610Y137148D01*
X191538Y137146D01*
X191489Y137128D01*
X191438Y137120D01*
X191374Y137086D01*
X191307Y137061D01*
X191266Y137029D01*
X191220Y137004D01*
X191171Y136952D01*
X191115Y136908D01*
X191087Y136864D01*
X191051Y136826D01*
X191021Y136761D01*
X190982Y136701D01*
X190969Y136650D01*
X190947Y136603D01*
X190939Y136532D01*
X190922Y136462D01*
X190926Y136410D01*
X190920Y136359D01*
X190935Y136288D01*
X190941Y136217D01*
X190961Y136169D01*
X190972Y136118D01*
X191009Y136057D01*
X191037Y135991D01*
X191082Y135935D01*
X191099Y135907D01*
X191116Y135892D01*
X191142Y135860D01*
X193485Y133517D01*
X193485Y129728D01*
X190807Y127050D01*
X188978Y127050D01*
X188959Y127047D01*
X188939Y127049D01*
X188838Y127027D01*
X188736Y127010D01*
X188718Y127001D01*
X188699Y126996D01*
X188610Y126943D01*
X188518Y126895D01*
X188505Y126881D01*
X188488Y126870D01*
X188420Y126792D01*
X188349Y126717D01*
X188341Y126699D01*
X188328Y126683D01*
X188289Y126587D01*
X188245Y126494D01*
X188243Y126474D01*
X188236Y126455D01*
X188217Y126289D01*
X188217Y125741D01*
X187324Y124848D01*
X175261Y124848D01*
X174482Y125627D01*
X174424Y125669D01*
X174372Y125718D01*
X174324Y125740D01*
X174282Y125770D01*
X174214Y125792D01*
X174148Y125822D01*
X174097Y125828D01*
X174047Y125843D01*
X173975Y125841D01*
X173904Y125849D01*
X173853Y125838D01*
X173801Y125836D01*
X173734Y125812D01*
X173664Y125797D01*
X173619Y125770D01*
X173570Y125752D01*
X173514Y125707D01*
X173453Y125670D01*
X173419Y125631D01*
X173378Y125598D01*
X173339Y125538D01*
X173293Y125484D01*
X173273Y125435D01*
X173245Y125391D01*
X173228Y125322D01*
X173201Y125255D01*
X173193Y125184D01*
X173185Y125153D01*
X173187Y125130D01*
X173182Y125089D01*
X173182Y123616D01*
X172289Y122723D01*
X163626Y122723D01*
X162733Y123616D01*
X162733Y125063D01*
X162730Y125082D01*
X162732Y125102D01*
X162710Y125203D01*
X162693Y125305D01*
X162684Y125323D01*
X162679Y125342D01*
X162626Y125431D01*
X162578Y125523D01*
X162564Y125536D01*
X162553Y125553D01*
X162475Y125621D01*
X162400Y125692D01*
X162382Y125700D01*
X162366Y125713D01*
X162270Y125752D01*
X162177Y125796D01*
X162157Y125798D01*
X162138Y125805D01*
X161972Y125824D01*
X160296Y125824D01*
X160206Y125809D01*
X160115Y125802D01*
X160085Y125789D01*
X160053Y125784D01*
X159972Y125741D01*
X159888Y125706D01*
X159856Y125680D01*
X159836Y125669D01*
X159813Y125646D01*
X159757Y125601D01*
X157748Y123591D01*
X157695Y123517D01*
X157635Y123448D01*
X157623Y123418D01*
X157604Y123391D01*
X157577Y123304D01*
X157543Y123220D01*
X157539Y123179D01*
X157532Y123156D01*
X157533Y123124D01*
X157525Y123053D01*
X157525Y110573D01*
X156632Y109680D01*
X152368Y109680D01*
X151475Y110573D01*
X151475Y123053D01*
X151461Y123143D01*
X151453Y123234D01*
X151451Y123239D01*
X151451Y126077D01*
X151457Y126090D01*
X151461Y126131D01*
X151468Y126154D01*
X151467Y126186D01*
X151475Y126257D01*
X151475Y126587D01*
X152368Y127480D01*
X152698Y127480D01*
X152788Y127494D01*
X152879Y127502D01*
X152909Y127514D01*
X152941Y127519D01*
X153021Y127562D01*
X153105Y127598D01*
X153137Y127624D01*
X153158Y127635D01*
X153180Y127658D01*
X153236Y127703D01*
X157455Y131921D01*
X161972Y131921D01*
X161991Y131924D01*
X162011Y131922D01*
X162112Y131944D01*
X162214Y131961D01*
X162232Y131970D01*
X162251Y131975D01*
X162340Y132028D01*
X162432Y132076D01*
X162445Y132090D01*
X162462Y132101D01*
X162530Y132179D01*
X162601Y132254D01*
X162609Y132272D01*
X162622Y132288D01*
X162661Y132384D01*
X162705Y132477D01*
X162707Y132497D01*
X162714Y132516D01*
X162733Y132682D01*
X162733Y134129D01*
X163626Y135022D01*
X172289Y135022D01*
X172417Y134894D01*
X172491Y134841D01*
X172561Y134782D01*
X172591Y134769D01*
X172617Y134751D01*
X172704Y134724D01*
X172789Y134690D01*
X172830Y134685D01*
X172852Y134678D01*
X172884Y134679D01*
X172955Y134671D01*
X173607Y134671D01*
X173626Y134674D01*
X173646Y134672D01*
X173747Y134694D01*
X173849Y134711D01*
X173867Y134720D01*
X173886Y134725D01*
X173975Y134778D01*
X174067Y134826D01*
X174080Y134840D01*
X174097Y134851D01*
X174165Y134929D01*
X174236Y135004D01*
X174244Y135022D01*
X174257Y135038D01*
X174296Y135134D01*
X174340Y135227D01*
X174342Y135247D01*
X174349Y135266D01*
X174368Y135432D01*
X174368Y136398D01*
X174365Y136418D01*
X174367Y136437D01*
X174345Y136539D01*
X174328Y136641D01*
X174319Y136658D01*
X174314Y136678D01*
X174261Y136767D01*
X174213Y136858D01*
X174199Y136872D01*
X174188Y136889D01*
X174110Y136956D01*
X174035Y137028D01*
X174017Y137036D01*
X174001Y137049D01*
X173905Y137088D01*
X173812Y137131D01*
X173792Y137133D01*
X173773Y137141D01*
X173607Y137159D01*
X156943Y137159D01*
X156853Y137145D01*
X156762Y137137D01*
X156732Y137125D01*
X156700Y137120D01*
X156619Y137077D01*
X156535Y137041D01*
X156503Y137015D01*
X156483Y137004D01*
X156460Y136981D01*
X156404Y136936D01*
X147328Y127860D01*
X147316Y127844D01*
X147301Y127831D01*
X147245Y127744D01*
X147184Y127660D01*
X147179Y127641D01*
X147168Y127624D01*
X147143Y127524D01*
X147112Y127425D01*
X147113Y127405D01*
X147108Y127386D01*
X147116Y127283D01*
X147118Y127179D01*
X147125Y127160D01*
X147127Y127141D01*
X147167Y127046D01*
X147203Y126948D01*
X147215Y126933D01*
X147223Y126914D01*
X147328Y126783D01*
X147525Y126587D01*
X147525Y110573D01*
X146632Y109680D01*
X142264Y109680D01*
X142202Y109696D01*
X142103Y109726D01*
X142083Y109726D01*
X142064Y109731D01*
X141961Y109723D01*
X141858Y109720D01*
X141839Y109713D01*
X141819Y109712D01*
X141745Y109680D01*
X137264Y109680D01*
X137202Y109696D01*
X137103Y109726D01*
X137083Y109726D01*
X137064Y109731D01*
X136961Y109723D01*
X136858Y109720D01*
X136839Y109713D01*
X136819Y109712D01*
X136745Y109680D01*
X132264Y109680D01*
X132202Y109696D01*
X132103Y109726D01*
X132083Y109726D01*
X132064Y109731D01*
X131961Y109723D01*
X131858Y109720D01*
X131839Y109713D01*
X131819Y109712D01*
X131745Y109680D01*
X127264Y109680D01*
X127202Y109696D01*
X127103Y109726D01*
X127083Y109726D01*
X127064Y109731D01*
X126961Y109723D01*
X126858Y109720D01*
X126839Y109713D01*
X126819Y109712D01*
X126745Y109680D01*
X122264Y109680D01*
X122202Y109696D01*
X122103Y109726D01*
X122083Y109726D01*
X122064Y109731D01*
X121961Y109723D01*
X121858Y109720D01*
X121839Y109713D01*
X121819Y109712D01*
X121745Y109680D01*
X117264Y109680D01*
X117202Y109696D01*
X117103Y109726D01*
X117083Y109726D01*
X117064Y109731D01*
X116961Y109723D01*
X116858Y109720D01*
X116839Y109713D01*
X116819Y109712D01*
X116745Y109680D01*
X112264Y109680D01*
X112202Y109696D01*
X112103Y109726D01*
X112083Y109726D01*
X112064Y109731D01*
X111961Y109723D01*
X111858Y109720D01*
X111839Y109713D01*
X111819Y109712D01*
X111745Y109680D01*
X107264Y109680D01*
X107202Y109696D01*
X107103Y109726D01*
X107083Y109726D01*
X107064Y109731D01*
X106961Y109723D01*
X106858Y109720D01*
X106839Y109713D01*
X106819Y109712D01*
X106745Y109680D01*
X102264Y109680D01*
X102202Y109696D01*
X102103Y109726D01*
X102083Y109726D01*
X102064Y109731D01*
X101961Y109723D01*
X101858Y109720D01*
X101839Y109713D01*
X101819Y109712D01*
X101745Y109680D01*
X97368Y109680D01*
X96475Y110573D01*
X96475Y126587D01*
X96736Y126848D01*
X96787Y126918D01*
X96828Y126961D01*
X96833Y126972D01*
X96849Y126991D01*
X96861Y127021D01*
X96880Y127047D01*
X96904Y127124D01*
X96931Y127184D01*
X96933Y127200D01*
X96941Y127219D01*
X96945Y127260D01*
X96952Y127282D01*
X96951Y127315D01*
X96959Y127386D01*
X96959Y130907D01*
X96945Y130997D01*
X96937Y131088D01*
X96925Y131118D01*
X96920Y131150D01*
X96877Y131231D01*
X96841Y131315D01*
X96815Y131347D01*
X96804Y131367D01*
X96781Y131390D01*
X96736Y131446D01*
X72671Y155511D01*
X72597Y155564D01*
X72527Y155624D01*
X72497Y155636D01*
X72471Y155655D01*
X72384Y155682D01*
X72299Y155716D01*
X72258Y155720D01*
X72236Y155727D01*
X72204Y155726D01*
X72132Y155734D01*
X64486Y155734D01*
X64466Y155731D01*
X64447Y155733D01*
X64345Y155711D01*
X64243Y155695D01*
X64226Y155685D01*
X64206Y155681D01*
X64117Y155628D01*
X64026Y155579D01*
X64012Y155565D01*
X63995Y155555D01*
X63928Y155476D01*
X63856Y155401D01*
X63848Y155383D01*
X63835Y155368D01*
X63796Y155272D01*
X63753Y155178D01*
X63751Y155158D01*
X63743Y155140D01*
X63725Y154973D01*
X63725Y154643D01*
X63226Y154145D01*
X63184Y154087D01*
X63135Y154035D01*
X63113Y153987D01*
X63083Y153945D01*
X63061Y153877D01*
X63031Y153811D01*
X63025Y153760D01*
X63010Y153710D01*
X63012Y153638D01*
X63004Y153567D01*
X63015Y153516D01*
X63017Y153464D01*
X63041Y153397D01*
X63056Y153327D01*
X63083Y153282D01*
X63101Y153233D01*
X63146Y153177D01*
X63183Y153116D01*
X63222Y153082D01*
X63255Y153041D01*
X63315Y153002D01*
X63369Y152956D01*
X63418Y152936D01*
X63462Y152908D01*
X63531Y152891D01*
X63598Y152864D01*
X63669Y152856D01*
X63700Y152848D01*
X63723Y152850D01*
X63764Y152845D01*
X65712Y152845D01*
X68390Y150167D01*
X68390Y146378D01*
X65712Y143700D01*
X61804Y143700D01*
X61724Y143732D01*
X61683Y143736D01*
X61661Y143743D01*
X61629Y143742D01*
X61558Y143750D01*
X46068Y143750D01*
X45115Y144703D01*
X45057Y144745D01*
X45005Y144795D01*
X44958Y144817D01*
X44916Y144847D01*
X44847Y144868D01*
X44782Y144898D01*
X44730Y144904D01*
X44680Y144919D01*
X44609Y144917D01*
X44538Y144925D01*
X44487Y144914D01*
X44435Y144913D01*
X44367Y144888D01*
X44297Y144873D01*
X44252Y144846D01*
X44204Y144829D01*
X44148Y144784D01*
X44086Y144747D01*
X44052Y144707D01*
X44012Y144675D01*
X43973Y144615D01*
X43926Y144560D01*
X43907Y144512D01*
X43879Y144468D01*
X43861Y144398D01*
X43834Y144332D01*
X43826Y144261D01*
X43818Y144229D01*
X43820Y144206D01*
X43816Y144165D01*
X43816Y109318D01*
X43830Y109228D01*
X43838Y109137D01*
X43850Y109107D01*
X43855Y109075D01*
X43898Y108994D01*
X43934Y108910D01*
X43960Y108878D01*
X43971Y108858D01*
X43994Y108835D01*
X44039Y108779D01*
X52772Y100046D01*
X52846Y99993D01*
X52916Y99933D01*
X52946Y99921D01*
X52972Y99902D01*
X53059Y99875D01*
X53144Y99841D01*
X53185Y99837D01*
X53207Y99830D01*
X53239Y99831D01*
X53311Y99823D01*
X55869Y99823D01*
X58548Y97144D01*
X58548Y93356D01*
X55869Y90677D01*
X52081Y90677D01*
G37*
%LPD*%
%LPC*%
G36*
X27453Y10145D02*
X27453Y10145D01*
X19512Y13434D01*
X13434Y19512D01*
X10145Y27453D01*
X10145Y36047D01*
X13434Y43988D01*
X19512Y50066D01*
X27453Y53355D01*
X36047Y53355D01*
X43988Y50066D01*
X50066Y43988D01*
X53355Y36047D01*
X53355Y27453D01*
X50066Y19512D01*
X43988Y13434D01*
X36047Y10145D01*
X27453Y10145D01*
G37*
%LPD*%
%LPC*%
G36*
X217953Y251445D02*
X217953Y251445D01*
X210012Y254734D01*
X203934Y260812D01*
X200645Y268753D01*
X200645Y277347D01*
X203934Y285288D01*
X210012Y291366D01*
X217953Y294655D01*
X226547Y294655D01*
X234488Y291366D01*
X240566Y285288D01*
X243855Y277347D01*
X243855Y268753D01*
X240566Y260812D01*
X234488Y254734D01*
X226547Y251445D01*
X217953Y251445D01*
G37*
%LPD*%
%LPC*%
G36*
X27453Y251445D02*
X27453Y251445D01*
X19512Y254734D01*
X13434Y260812D01*
X10145Y268753D01*
X10145Y277347D01*
X13434Y285288D01*
X19512Y291366D01*
X27453Y294655D01*
X36047Y294655D01*
X43988Y291366D01*
X50066Y285288D01*
X53355Y277347D01*
X53355Y268753D01*
X50066Y260812D01*
X43988Y254734D01*
X36047Y251445D01*
X27453Y251445D01*
G37*
%LPD*%
%LPC*%
G36*
X217953Y10145D02*
X217953Y10145D01*
X210012Y13434D01*
X203934Y19512D01*
X200645Y27453D01*
X200645Y36047D01*
X203934Y43988D01*
X210012Y50066D01*
X217953Y53355D01*
X226547Y53355D01*
X234488Y50066D01*
X240566Y43988D01*
X243855Y36047D01*
X243855Y27453D01*
X240566Y19512D01*
X234488Y13434D01*
X226547Y10145D01*
X217953Y10145D01*
G37*
%LPD*%
%LPC*%
G36*
X107368Y24920D02*
X107368Y24920D01*
X106475Y25813D01*
X106475Y41827D01*
X107368Y42720D01*
X111736Y42720D01*
X111798Y42704D01*
X111897Y42674D01*
X111917Y42674D01*
X111936Y42669D01*
X112039Y42677D01*
X112142Y42680D01*
X112161Y42687D01*
X112181Y42688D01*
X112255Y42720D01*
X116736Y42720D01*
X116798Y42704D01*
X116897Y42674D01*
X116917Y42674D01*
X116936Y42669D01*
X117039Y42677D01*
X117142Y42680D01*
X117161Y42687D01*
X117181Y42688D01*
X117255Y42720D01*
X121736Y42720D01*
X121798Y42704D01*
X121897Y42674D01*
X121917Y42674D01*
X121936Y42669D01*
X122039Y42677D01*
X122142Y42680D01*
X122161Y42687D01*
X122181Y42688D01*
X122255Y42720D01*
X126736Y42720D01*
X126798Y42704D01*
X126897Y42674D01*
X126917Y42674D01*
X126936Y42669D01*
X127039Y42677D01*
X127142Y42680D01*
X127161Y42687D01*
X127181Y42688D01*
X127255Y42720D01*
X129129Y42720D01*
X129199Y42731D01*
X129271Y42733D01*
X129320Y42751D01*
X129371Y42759D01*
X129435Y42793D01*
X129502Y42818D01*
X129543Y42850D01*
X129589Y42875D01*
X129638Y42927D01*
X129694Y42971D01*
X129722Y43015D01*
X129758Y43053D01*
X129788Y43118D01*
X129827Y43178D01*
X129840Y43229D01*
X129862Y43276D01*
X129870Y43347D01*
X129887Y43417D01*
X129883Y43469D01*
X129889Y43520D01*
X129874Y43591D01*
X129868Y43662D01*
X129848Y43710D01*
X129837Y43761D01*
X129800Y43822D01*
X129772Y43888D01*
X129727Y43944D01*
X129710Y43972D01*
X129693Y43987D01*
X129667Y44019D01*
X120288Y53398D01*
X120214Y53451D01*
X120144Y53511D01*
X120114Y53523D01*
X120088Y53542D01*
X120001Y53569D01*
X119916Y53603D01*
X119875Y53607D01*
X119853Y53614D01*
X119821Y53613D01*
X119749Y53621D01*
X116512Y53621D01*
X113701Y56432D01*
X113701Y60408D01*
X116512Y63219D01*
X120488Y63219D01*
X122526Y61181D01*
X122542Y61169D01*
X122554Y61154D01*
X122642Y61097D01*
X122725Y61037D01*
X122744Y61031D01*
X122761Y61021D01*
X122862Y60995D01*
X122960Y60965D01*
X122980Y60965D01*
X123000Y60961D01*
X123103Y60969D01*
X123206Y60971D01*
X123225Y60978D01*
X123245Y60980D01*
X123340Y61020D01*
X123437Y61056D01*
X123453Y61068D01*
X123471Y61076D01*
X123486Y61088D01*
X130527Y61088D01*
X130597Y61037D01*
X130617Y61031D01*
X130633Y61021D01*
X130734Y60995D01*
X130833Y60965D01*
X130853Y60965D01*
X130872Y60961D01*
X130975Y60969D01*
X131078Y60971D01*
X131097Y60978D01*
X131117Y60980D01*
X131212Y61020D01*
X131309Y61056D01*
X131325Y61068D01*
X131343Y61076D01*
X131474Y61181D01*
X133512Y63219D01*
X137488Y63219D01*
X140299Y60408D01*
X140299Y57171D01*
X140313Y57080D01*
X140321Y56990D01*
X140333Y56960D01*
X140338Y56928D01*
X140381Y56847D01*
X140417Y56763D01*
X140443Y56731D01*
X140454Y56710D01*
X140477Y56688D01*
X140522Y56632D01*
X141787Y55367D01*
X141787Y43481D01*
X141790Y43461D01*
X141788Y43442D01*
X141810Y43340D01*
X141826Y43238D01*
X141836Y43221D01*
X141840Y43201D01*
X141893Y43112D01*
X141942Y43021D01*
X141956Y43007D01*
X141966Y42990D01*
X142045Y42923D01*
X142120Y42851D01*
X142138Y42843D01*
X142153Y42830D01*
X142249Y42791D01*
X142343Y42748D01*
X142363Y42746D01*
X142381Y42738D01*
X142548Y42720D01*
X146736Y42720D01*
X146798Y42704D01*
X146897Y42674D01*
X146917Y42674D01*
X146936Y42669D01*
X147039Y42677D01*
X147142Y42680D01*
X147161Y42687D01*
X147181Y42688D01*
X147255Y42720D01*
X151736Y42720D01*
X151798Y42704D01*
X151897Y42674D01*
X151917Y42674D01*
X151936Y42669D01*
X152039Y42677D01*
X152142Y42680D01*
X152161Y42687D01*
X152181Y42688D01*
X152255Y42720D01*
X156632Y42720D01*
X157525Y41827D01*
X157525Y25813D01*
X156632Y24920D01*
X152264Y24920D01*
X152202Y24936D01*
X152104Y24966D01*
X152084Y24966D01*
X152064Y24971D01*
X151961Y24963D01*
X151858Y24960D01*
X151839Y24953D01*
X151819Y24952D01*
X151746Y24920D01*
X147264Y24920D01*
X147202Y24936D01*
X147104Y24966D01*
X147084Y24966D01*
X147064Y24971D01*
X146961Y24963D01*
X146858Y24960D01*
X146839Y24953D01*
X146819Y24952D01*
X146746Y24920D01*
X142264Y24920D01*
X142202Y24936D01*
X142104Y24966D01*
X142084Y24966D01*
X142064Y24971D01*
X141961Y24963D01*
X141858Y24960D01*
X141839Y24953D01*
X141819Y24952D01*
X141746Y24920D01*
X137264Y24920D01*
X137202Y24936D01*
X137104Y24966D01*
X137084Y24966D01*
X137064Y24971D01*
X136961Y24963D01*
X136858Y24960D01*
X136839Y24953D01*
X136819Y24952D01*
X136746Y24920D01*
X132264Y24920D01*
X132202Y24936D01*
X132104Y24966D01*
X132084Y24966D01*
X132064Y24971D01*
X131961Y24963D01*
X131858Y24960D01*
X131839Y24953D01*
X131819Y24952D01*
X131746Y24920D01*
X127264Y24920D01*
X127202Y24936D01*
X127104Y24966D01*
X127084Y24966D01*
X127064Y24971D01*
X126961Y24963D01*
X126858Y24960D01*
X126839Y24953D01*
X126819Y24952D01*
X126746Y24920D01*
X122264Y24920D01*
X122202Y24936D01*
X122104Y24966D01*
X122084Y24966D01*
X122064Y24971D01*
X121961Y24963D01*
X121858Y24960D01*
X121839Y24953D01*
X121819Y24952D01*
X121746Y24920D01*
X117264Y24920D01*
X117202Y24936D01*
X117104Y24966D01*
X117084Y24966D01*
X117064Y24971D01*
X116961Y24963D01*
X116858Y24960D01*
X116839Y24953D01*
X116819Y24952D01*
X116746Y24920D01*
X112264Y24920D01*
X112202Y24936D01*
X112104Y24966D01*
X112084Y24966D01*
X112064Y24971D01*
X111961Y24963D01*
X111858Y24960D01*
X111839Y24953D01*
X111819Y24952D01*
X111746Y24920D01*
X107368Y24920D01*
G37*
%LPD*%
%LPC*%
G36*
X179081Y166877D02*
X179081Y166877D01*
X176402Y169556D01*
X176402Y171396D01*
X176388Y171486D01*
X176380Y171577D01*
X176368Y171607D01*
X176363Y171639D01*
X176320Y171719D01*
X176284Y171803D01*
X176258Y171835D01*
X176247Y171856D01*
X176224Y171878D01*
X176179Y171934D01*
X171111Y177002D01*
X171037Y177055D01*
X170968Y177115D01*
X170938Y177127D01*
X170911Y177146D01*
X170824Y177173D01*
X170740Y177207D01*
X170699Y177211D01*
X170676Y177218D01*
X170644Y177217D01*
X170573Y177225D01*
X163168Y177225D01*
X162275Y178118D01*
X162275Y185166D01*
X162272Y185186D01*
X162274Y185205D01*
X162252Y185307D01*
X162236Y185409D01*
X162226Y185426D01*
X162222Y185446D01*
X162169Y185535D01*
X162120Y185626D01*
X162106Y185640D01*
X162096Y185657D01*
X162017Y185724D01*
X161942Y185796D01*
X161924Y185804D01*
X161909Y185817D01*
X161813Y185856D01*
X161719Y185899D01*
X161699Y185901D01*
X161681Y185909D01*
X161514Y185927D01*
X160031Y185927D01*
X157352Y188606D01*
X157352Y192394D01*
X158653Y193695D01*
X158706Y193769D01*
X158766Y193839D01*
X158778Y193869D01*
X158797Y193895D01*
X158824Y193982D01*
X158858Y194067D01*
X158862Y194108D01*
X158869Y194130D01*
X158868Y194162D01*
X158876Y194233D01*
X158876Y233722D01*
X158862Y233812D01*
X158854Y233903D01*
X158842Y233933D01*
X158837Y233965D01*
X158794Y234045D01*
X158758Y234129D01*
X158732Y234161D01*
X158721Y234182D01*
X158698Y234204D01*
X158653Y234260D01*
X157636Y235277D01*
X157562Y235330D01*
X157493Y235390D01*
X157463Y235402D01*
X157436Y235421D01*
X157349Y235448D01*
X157265Y235482D01*
X157224Y235486D01*
X157201Y235493D01*
X157169Y235492D01*
X157098Y235500D01*
X154052Y235500D01*
X153962Y235486D01*
X153871Y235478D01*
X153841Y235466D01*
X153809Y235461D01*
X153729Y235418D01*
X153645Y235382D01*
X153613Y235356D01*
X153592Y235345D01*
X153579Y235332D01*
X153578Y235331D01*
X153567Y235320D01*
X153514Y235277D01*
X150138Y231901D01*
X149783Y231901D01*
X149693Y231887D01*
X149602Y231879D01*
X149573Y231867D01*
X149541Y231862D01*
X149460Y231819D01*
X149376Y231783D01*
X149344Y231757D01*
X149323Y231746D01*
X149301Y231723D01*
X149245Y231678D01*
X147944Y230377D01*
X144156Y230377D01*
X141477Y233056D01*
X141477Y236844D01*
X144156Y239523D01*
X147944Y239523D01*
X148002Y239465D01*
X148018Y239453D01*
X148030Y239438D01*
X148118Y239382D01*
X148202Y239321D01*
X148221Y239316D01*
X148237Y239305D01*
X148338Y239280D01*
X148437Y239249D01*
X148457Y239250D01*
X148476Y239245D01*
X148579Y239253D01*
X148683Y239255D01*
X148701Y239262D01*
X148721Y239264D01*
X148816Y239304D01*
X148914Y239340D01*
X148929Y239352D01*
X148947Y239360D01*
X149078Y239465D01*
X150127Y240514D01*
X150180Y240588D01*
X150240Y240657D01*
X150252Y240687D01*
X150271Y240714D01*
X150298Y240801D01*
X150332Y240885D01*
X150336Y240926D01*
X150343Y240949D01*
X150342Y240981D01*
X150350Y241052D01*
X150350Y246907D01*
X151243Y247800D01*
X159907Y247800D01*
X160800Y246907D01*
X160800Y241052D01*
X160814Y240962D01*
X160822Y240871D01*
X160834Y240841D01*
X160839Y240809D01*
X160882Y240729D01*
X160918Y240645D01*
X160944Y240613D01*
X160955Y240592D01*
X160978Y240570D01*
X161023Y240514D01*
X164974Y236563D01*
X164974Y194233D01*
X164988Y194143D01*
X164996Y194052D01*
X165008Y194023D01*
X165013Y193991D01*
X165056Y193910D01*
X165092Y193826D01*
X165118Y193794D01*
X165129Y193773D01*
X165152Y193751D01*
X165197Y193695D01*
X166498Y192394D01*
X166498Y191836D01*
X166501Y191816D01*
X166499Y191797D01*
X166521Y191695D01*
X166537Y191593D01*
X166547Y191576D01*
X166551Y191556D01*
X166604Y191467D01*
X166653Y191376D01*
X166667Y191362D01*
X166677Y191345D01*
X166756Y191278D01*
X166831Y191206D01*
X166849Y191198D01*
X166864Y191185D01*
X166960Y191146D01*
X167054Y191103D01*
X167074Y191101D01*
X167092Y191093D01*
X167259Y191075D01*
X174932Y191075D01*
X175825Y190182D01*
X175825Y181227D01*
X175839Y181137D01*
X175847Y181046D01*
X175859Y181016D01*
X175864Y180984D01*
X175907Y180904D01*
X175943Y180820D01*
X175969Y180788D01*
X175980Y180767D01*
X176003Y180745D01*
X176048Y180689D01*
X180491Y176246D01*
X180565Y176193D01*
X180634Y176133D01*
X180664Y176121D01*
X180691Y176102D01*
X180778Y176075D01*
X180862Y176041D01*
X180903Y176037D01*
X180926Y176030D01*
X180958Y176031D01*
X181029Y176023D01*
X182869Y176023D01*
X185548Y173344D01*
X185548Y169556D01*
X182869Y166877D01*
X179081Y166877D01*
G37*
%LPD*%
%LPC*%
G36*
X92593Y229875D02*
X92593Y229875D01*
X91700Y230768D01*
X91700Y242532D01*
X92593Y243425D01*
X100357Y243425D01*
X101250Y242532D01*
X101250Y230768D01*
X100357Y229875D01*
X92593Y229875D01*
G37*
%LPD*%
%LPC*%
G36*
X71093Y229875D02*
X71093Y229875D01*
X70200Y230768D01*
X70200Y242532D01*
X71093Y243425D01*
X78857Y243425D01*
X79750Y242532D01*
X79750Y230768D01*
X78857Y229875D01*
X71093Y229875D01*
G37*
%LPD*%
D10*
X0Y0D02*
X254000Y0D01*
X254000Y304800D01*
X0Y304800D01*
X0Y0D01*
D11*
X54450Y148275D03*
X54450Y158275D03*
X54450Y168275D03*
X54450Y178275D03*
X54450Y188275D03*
D12*
X15700Y201275D03*
X15700Y135275D03*
D13*
X169380Y103700D03*
X169380Y98700D03*
X169380Y93700D03*
X169380Y88700D03*
X169380Y83700D03*
X169380Y78700D03*
X169380Y73700D03*
X169380Y68700D03*
X169380Y63700D03*
X169380Y58700D03*
X169380Y53700D03*
X169380Y48700D03*
D14*
X154500Y33820D03*
X149500Y33820D03*
X144500Y33820D03*
X139500Y33820D03*
X134500Y33820D03*
X129500Y33820D03*
X124500Y33820D03*
X119500Y33820D03*
X114500Y33820D03*
X109500Y33820D03*
X104500Y33820D03*
X99500Y33820D03*
D13*
X84620Y48700D03*
X84620Y53700D03*
X84620Y58700D03*
X84620Y63700D03*
X84620Y68700D03*
X84620Y73700D03*
X84620Y78700D03*
X84620Y83700D03*
X84620Y88700D03*
X84620Y93700D03*
X84620Y98700D03*
X84620Y103700D03*
D14*
X99500Y118580D03*
X104500Y118580D03*
X109500Y118580D03*
X114500Y118580D03*
X119500Y118580D03*
X124500Y118580D03*
X129500Y118580D03*
X134500Y118580D03*
X139500Y118580D03*
X144500Y118580D03*
X149500Y118580D03*
X154500Y118580D03*
D15*
X223520Y161925D03*
X208280Y161925D03*
X223520Y139700D03*
X208280Y139700D03*
X223520Y117475D03*
X208280Y117475D03*
X223520Y95250D03*
X208280Y95250D03*
D16*
X136525Y141050D03*
X136525Y151050D03*
D17*
X167958Y128873D03*
X167958Y116873D03*
D18*
X181293Y131623D03*
X181293Y114123D03*
D19*
X187675Y66675D03*
X199675Y66675D03*
D20*
X188100Y79375D03*
X205600Y79375D03*
D19*
X104425Y15875D03*
X92425Y15875D03*
D17*
X66675Y105125D03*
X66675Y117125D03*
X155575Y241650D03*
X155575Y253650D03*
D20*
X169050Y184150D03*
X186550Y184150D03*
D21*
X96475Y195150D03*
X96475Y236650D03*
X74975Y195150D03*
X74975Y236650D03*
D17*
X53975Y213075D03*
X53975Y225075D03*
D22*
X127000Y203200D03*
D23*
X193675Y101600D03*
X234950Y104775D03*
X120650Y88900D03*
X101600Y85725D03*
X107950Y62548D03*
X142875Y88900D03*
X144145Y65405D03*
X113983Y75883D03*
X73025Y41275D03*
X92075Y38100D03*
X57150Y53975D03*
X60325Y28575D03*
X161290Y29528D03*
X177165Y10478D03*
X128905Y9525D03*
X74930Y9525D03*
X34925Y76200D03*
X12700Y98425D03*
X9525Y123825D03*
X15875Y174625D03*
X31750Y190500D03*
X15875Y225425D03*
X44450Y225425D03*
X88900Y206375D03*
X79375Y184150D03*
X60325Y196850D03*
X66675Y168275D03*
X92075Y149225D03*
X75248Y147955D03*
X91440Y131445D03*
X50800Y136525D03*
X50800Y114300D03*
X76200Y114300D03*
X57150Y82550D03*
X33338Y108585D03*
X33338Y146368D03*
X155575Y47625D03*
X180975Y44450D03*
X200025Y57150D03*
X215900Y82550D03*
X238125Y66675D03*
X234950Y127000D03*
X234950Y149225D03*
X234950Y171450D03*
X165100Y146050D03*
X196850Y152400D03*
X197485Y128905D03*
X196850Y174625D03*
X155575Y177800D03*
X146050Y152400D03*
X127953Y138113D03*
X101600Y177800D03*
X85725Y238125D03*
X133350Y238125D03*
X171450Y209550D03*
X161925Y254000D03*
X127000Y285750D03*
X95250Y285750D03*
X63500Y285750D03*
X79375Y269875D03*
X111125Y269875D03*
X95250Y254000D03*
X63500Y254000D03*
X127000Y254000D03*
X142875Y269875D03*
X158750Y285750D03*
X174625Y269875D03*
X190500Y285750D03*
X190500Y254000D03*
X174625Y238125D03*
X190500Y222250D03*
X206375Y238125D03*
X222250Y222250D03*
X238125Y238125D03*
X238125Y206375D03*
X206375Y206375D03*
X222250Y190500D03*
X161925Y114300D03*
X141605Y106045D03*
X117793Y106045D03*
X12700Y60325D03*
X184150Y193675D03*
X141288Y217488D03*
X112713Y217488D03*
X112713Y188913D03*
X141288Y188913D03*
D24*
X31750Y273050D03*
X222250Y273050D03*
X222250Y31750D03*
X31750Y31750D03*
D25*
X171450Y161925D02*
X208280Y161925D01*
X139500Y129975D02*
X139500Y118580D01*
X139500Y129975D02*
X171450Y161925D01*
X155575Y139700D02*
X208280Y139700D01*
X144500Y128625D02*
X144500Y118580D01*
X144500Y128625D02*
X155575Y139700D01*
X169380Y98700D02*
X181250Y98700D01*
X200025Y117475D02*
X208280Y117475D01*
X200025Y117475D02*
X181250Y98700D01*
X206730Y93700D02*
X208280Y95250D01*
X206730Y93700D02*
X169380Y93700D01*
X134500Y118580D02*
X134500Y139025D01*
X136525Y141050D01*
X154500Y124655D02*
X154500Y118580D01*
D26*
X154500Y124655D02*
X158718Y128873D01*
X167958Y128873D01*
D25*
X170708Y131623D01*
D26*
X181293Y131623D01*
D25*
X188913Y131623D01*
D23*
X188913Y131623D03*
D25*
X169380Y103700D02*
X168745Y103065D01*
X157163Y103065D01*
D23*
X157163Y103065D03*
X187325Y85725D03*
D27*
X188100Y84950D01*
X188100Y79375D01*
D26*
X188100Y67100D01*
D25*
X187675Y66675D01*
X184700Y63700D01*
D26*
X169380Y63700D01*
X84620Y103700D02*
X68100Y103700D01*
D25*
X66850Y104950D01*
X66675Y105125D01*
D26*
X187675Y66675D02*
X187675Y32100D01*
X171450Y15875D01*
X104425Y15875D01*
D25*
X104425Y19050D01*
D26*
X99500Y23975D01*
D25*
X99500Y25400D01*
D26*
X99500Y33820D01*
X76200Y25400D02*
X66675Y34925D01*
X66675Y104775D01*
D25*
X66850Y104950D01*
D26*
X76200Y25400D02*
X99500Y25400D01*
D28*
X63815Y148275D02*
X54450Y148275D01*
D27*
X63815Y148275D02*
X63818Y148273D01*
D23*
X63818Y148273D03*
X180975Y171450D03*
D26*
X169050Y183375D01*
X169050Y184150D01*
X162700Y190500D01*
X161925Y190500D01*
D23*
X161925Y190500D03*
D26*
X161925Y235300D01*
X155575Y241650D01*
X148875Y234950D01*
X146050Y234950D01*
D23*
X146050Y234950D03*
D25*
X145375Y73700D02*
X169380Y73700D01*
X145375Y73700D02*
X142875Y76200D01*
D23*
X142875Y76200D03*
X34925Y165100D03*
D25*
X42225Y188275D02*
X54450Y188275D01*
X42225Y188275D02*
X34925Y180975D01*
X34925Y165100D01*
X54450Y188275D02*
X69850Y188275D01*
X74975Y193400D01*
X74975Y195150D01*
X74975Y198075D01*
X59975Y213075D02*
X53975Y213075D01*
X59975Y213075D02*
X74975Y198075D01*
X73500Y158275D02*
X54450Y158275D01*
X99500Y132275D02*
X99500Y118580D01*
X99500Y132275D02*
X73500Y158275D01*
X54450Y178275D02*
X44925Y178275D01*
X41275Y174625D01*
X41275Y107950D01*
X53975Y95250D01*
D23*
X53975Y95250D03*
X73025Y93663D03*
D25*
X73063Y93700D01*
X84620Y93700D01*
D29*
X118500Y58420D03*
D30*
X134500Y42420D01*
X134500Y33820D01*
D29*
X135500Y58420D03*
D30*
X139500Y54420D01*
X139500Y33820D01*
D25*
X109500Y118580D02*
X109500Y131800D01*
X107950Y133350D01*
D23*
X107950Y133350D03*
D25*
X119500Y132200D02*
X119500Y118580D01*
X119500Y132200D02*
X120650Y133350D01*
D23*
X120650Y133350D03*
D25*
X114500Y135455D02*
X114500Y118580D01*
X114500Y135455D02*
X123825Y144780D01*
X123825Y146050D01*
D23*
X123825Y146050D03*
M02*
